<svg width="283" height="36" viewBox="0 0 283 36" fill="none" xmlns="http://www.w3.org/2000/svg">
<path d="M30 26.6539V9.34624L15 0.692383L0 9.34624V26.6539L15 35.3078L30 26.6539Z" fill="url(#paint0_linear_329_68492)"/>
<path d="M41.696 15.13C41.696 16.048 41.762 16.897 41.894 17.677C42.032 18.451 42.233 19.156 42.497 19.792C42.761 20.422 43.085 20.98 43.469 21.466C43.853 21.946 44.297 22.351 44.801 22.681C45.305 23.005 45.863 23.251 46.475 23.419C47.093 23.581 47.759 23.662 48.473 23.662C49.337 23.662 50.117 23.536 50.813 23.284C51.509 23.032 52.118 22.657 52.64 22.159C53.162 21.655 53.597 21.028 53.945 20.278C54.293 19.522 54.551 18.646 54.719 17.65H60.38C60.14 19.342 59.684 20.863 59.012 22.213C58.346 23.557 57.5 24.7 56.474 25.642C55.454 26.578 54.269 27.295 52.919 27.793C51.569 28.291 50.087 28.54 48.473 28.54C47.249 28.54 46.091 28.396 44.999 28.108C43.907 27.82 42.899 27.406 41.975 26.866C41.051 26.32 40.217 25.654 39.473 24.868C38.729 24.082 38.096 23.194 37.574 22.204C37.058 21.208 36.662 20.119 36.386 18.937C36.11 17.749 35.972 16.48 35.972 15.13C35.972 13.78 36.11 12.514 36.386 11.332C36.662 10.144 37.058 9.055 37.574 8.065C38.096 7.069 38.729 6.178 39.473 5.392C40.217 4.606 41.051 3.943 41.975 3.403C42.899 2.857 43.907 2.44 44.999 2.152C46.091 1.864 47.249 1.72 48.473 1.72C50.087 1.72 51.569 1.969 52.919 2.467C54.269 2.965 55.454 3.685 56.474 4.627C57.5 5.563 58.346 6.706 59.012 8.056C59.684 9.4 60.14 10.918 60.38 12.61H54.719C54.551 11.614 54.293 10.741 53.945 9.991C53.597 9.235 53.162 8.608 52.64 8.11C52.118 7.606 51.509 7.228 50.813 6.976C50.117 6.724 49.337 6.598 48.473 6.598C47.759 6.598 47.093 6.682 46.475 6.85C45.863 7.012 45.305 7.258 44.801 7.588C44.297 7.912 43.853 8.317 43.469 8.803C43.085 9.283 42.761 9.841 42.497 10.477C42.233 11.107 42.032 11.812 41.894 12.592C41.762 13.366 41.696 14.212 41.696 15.13ZM76.6084 8.155H82.1524L74.5834 28.558C74.1514 29.74 73.6414 30.757 73.0534 31.609C72.4714 32.467 71.7964 33.172 71.0284 33.724C70.2604 34.282 69.3964 34.693 68.4364 34.957C67.4824 35.227 66.4114 35.362 65.2234 35.362C64.7734 35.362 64.3114 35.341 63.8374 35.299C63.3694 35.257 62.8834 35.194 62.3794 35.11V30.754C62.7934 30.808 63.1744 30.85 63.5224 30.88C63.8704 30.91 64.1974 30.925 64.5034 30.925C65.0734 30.925 65.5894 30.874 66.0514 30.772C66.5134 30.676 66.9304 30.523 67.3024 30.313C67.6804 30.109 68.0134 29.845 68.3014 29.521C68.5954 29.197 68.8534 28.81 69.0754 28.36L69.5794 27.145L69.1114 29.269L61.3984 8.155H67.0684L72.5134 26.155H71.0914L76.6084 8.155ZM88.8985 1.36V14.275L88.8715 14.293C89.0875 13.237 89.3965 12.295 89.7985 11.467C90.2005 10.639 90.6835 9.94 91.2475 9.37C91.8175 8.8 92.4655 8.365 93.1915 8.065C93.9235 7.765 94.7185 7.615 95.5765 7.615C96.3625 7.615 97.1065 7.732 97.8085 7.966C98.5105 8.194 99.1585 8.524 99.7525 8.956C100.346 9.388 100.88 9.916 101.354 10.54C101.834 11.158 102.239 11.854 102.569 12.628C102.899 13.402 103.151 14.248 103.325 15.166C103.505 16.078 103.595 17.047 103.595 18.073C103.595 19.099 103.505 20.071 103.325 20.989C103.151 21.901 102.899 22.747 102.569 23.527C102.239 24.301 101.834 24.997 101.354 25.615C100.88 26.233 100.346 26.761 99.7525 27.199C99.1585 27.631 98.5105 27.961 97.8085 28.189C97.1065 28.423 96.3625 28.54 95.5765 28.54C94.7185 28.54 93.9235 28.39 93.1915 28.09C92.4655 27.79 91.8175 27.355 91.2475 26.785C90.6835 26.215 90.2005 25.516 89.7985 24.688C89.3965 23.854 89.0875 22.909 88.8715 21.853L88.8985 21.88V28H83.5075V1.36H88.8985ZM88.8985 18.073C88.8985 18.691 88.9435 19.264 89.0335 19.792C89.1295 20.32 89.2675 20.8 89.4475 21.232C89.6275 21.664 89.8495 22.048 90.1135 22.384C90.3835 22.714 90.6925 22.993 91.0405 23.221C91.3885 23.443 91.7725 23.611 92.1925 23.725C92.6185 23.839 93.0775 23.896 93.5695 23.896C94.3255 23.896 94.9885 23.773 95.5585 23.527C96.1345 23.281 96.6145 22.912 96.9985 22.42C97.3825 21.928 97.6735 21.319 97.8715 20.593C98.0695 19.867 98.1685 19.027 98.1685 18.073C98.1685 17.119 98.0695 16.279 97.8715 15.553C97.6795 14.827 97.3885 14.221 96.9985 13.735C96.6145 13.243 96.1345 12.874 95.5585 12.628C94.9885 12.382 94.3255 12.259 93.5695 12.259C93.0775 12.259 92.6185 12.316 92.1925 12.43C91.7725 12.544 91.3885 12.715 91.0405 12.943C90.6925 13.165 90.3835 13.441 90.1135 13.771C89.8495 14.101 89.6275 14.482 89.4475 14.914C89.2675 15.346 89.1295 15.826 89.0335 16.354C88.9435 16.882 88.8985 17.455 88.8985 18.073ZM110.214 18.433C110.214 19.333 110.328 20.143 110.556 20.863C110.79 21.577 111.123 22.183 111.555 22.681C111.987 23.179 112.512 23.563 113.13 23.833C113.754 24.097 114.459 24.229 115.245 24.229C115.767 24.229 116.247 24.169 116.685 24.049C117.129 23.923 117.528 23.737 117.882 23.491C118.242 23.239 118.56 22.93 118.836 22.564C119.118 22.192 119.355 21.763 119.547 21.277H124.614C124.344 22.405 123.921 23.419 123.345 24.319C122.769 25.219 122.07 25.981 121.248 26.605C120.432 27.229 119.502 27.706 118.458 28.036C117.42 28.372 116.298 28.54 115.092 28.54C113.592 28.54 112.227 28.288 110.997 27.784C109.767 27.28 108.711 26.569 107.829 25.651C106.953 24.727 106.272 23.623 105.786 22.339C105.306 21.049 105.066 19.621 105.066 18.055C105.066 16.501 105.303 15.082 105.777 13.798C106.257 12.514 106.932 11.416 107.802 10.504C108.672 9.586 109.716 8.875 110.934 8.371C112.152 7.867 113.502 7.615 114.984 7.615C116.448 7.615 117.777 7.864 118.971 8.362C120.171 8.854 121.194 9.556 122.04 10.468C122.892 11.374 123.549 12.469 124.011 13.753C124.473 15.031 124.704 16.456 124.704 18.028C124.704 18.268 124.698 18.511 124.686 18.757C124.674 18.997 124.656 19.243 124.632 19.495H108.405V16.165H121.788L119.601 19.441C119.625 19.207 119.64 18.976 119.646 18.748C119.658 18.514 119.664 18.286 119.664 18.064C119.664 17.044 119.562 16.15 119.358 15.382C119.16 14.608 118.866 13.96 118.476 13.438C118.086 12.916 117.6 12.523 117.018 12.259C116.442 11.989 115.773 11.854 115.011 11.854C114.255 11.854 113.58 11.986 112.986 12.25C112.392 12.514 111.888 12.898 111.474 13.402C111.066 13.9 110.754 14.512 110.538 15.238C110.322 15.964 110.214 16.786 110.214 17.704V18.433ZM132 18.937V28H126.609V8.155H132V15.148L131.982 15.175C132.15 14.095 132.408 13.123 132.756 12.259C133.104 11.389 133.551 10.651 134.097 10.045C134.643 9.439 135.291 8.974 136.041 8.65C136.791 8.32 137.655 8.155 138.633 8.155H139.812V13.231H137.733C136.629 13.231 135.708 13.345 134.97 13.573C134.238 13.801 133.65 14.149 133.206 14.617C132.768 15.085 132.456 15.679 132.27 16.399C132.09 17.113 132 17.959 132 18.937ZM150.058 7.615C151.516 7.615 152.815 7.774 153.955 8.092C155.101 8.41 156.067 8.869 156.853 9.469C157.639 10.063 158.236 10.786 158.644 11.638C159.058 12.49 159.265 13.45 159.265 14.518H153.946C153.946 14.056 153.865 13.645 153.703 13.285C153.541 12.919 153.301 12.607 152.983 12.349C152.665 12.091 152.269 11.896 151.795 11.764C151.327 11.626 150.784 11.557 150.166 11.557C149.626 11.557 149.131 11.608 148.681 11.71C148.237 11.812 147.853 11.959 147.529 12.151C147.211 12.337 146.962 12.562 146.782 12.826C146.608 13.084 146.521 13.372 146.521 13.69C146.521 13.954 146.572 14.182 146.674 14.374C146.782 14.566 146.929 14.737 147.115 14.887C147.301 15.031 147.523 15.157 147.781 15.265C148.039 15.373 148.321 15.466 148.627 15.544C148.933 15.622 149.257 15.694 149.599 15.76C149.947 15.82 150.301 15.883 150.661 15.949L151.993 16.174C152.527 16.264 153.091 16.369 153.685 16.489C154.285 16.603 154.876 16.753 155.458 16.939C156.04 17.125 156.598 17.359 157.132 17.641C157.666 17.917 158.134 18.268 158.536 18.694C158.944 19.114 159.268 19.615 159.508 20.197C159.754 20.779 159.877 21.466 159.877 22.258C159.877 23.254 159.67 24.142 159.256 24.922C158.842 25.702 158.236 26.362 157.438 26.902C156.646 27.436 155.668 27.841 154.504 28.117C153.346 28.399 152.014 28.54 150.508 28.54C148.924 28.54 147.529 28.384 146.323 28.072C145.123 27.766 144.115 27.313 143.299 26.713C142.489 26.107 141.877 25.369 141.463 24.499C141.049 23.623 140.842 22.615 140.842 21.475H146.161C146.161 21.973 146.248 22.414 146.422 22.798C146.596 23.182 146.863 23.506 147.223 23.77C147.583 24.028 148.03 24.226 148.564 24.364C149.104 24.496 149.737 24.562 150.463 24.562C151.105 24.562 151.678 24.514 152.182 24.418C152.686 24.316 153.115 24.169 153.469 23.977C153.823 23.785 154.093 23.551 154.279 23.275C154.465 22.999 154.558 22.687 154.558 22.339C154.558 22.057 154.504 21.811 154.396 21.601C154.294 21.385 154.15 21.199 153.964 21.043C153.778 20.887 153.55 20.752 153.28 20.638C153.01 20.518 152.71 20.413 152.38 20.323C152.05 20.233 151.69 20.152 151.3 20.08C150.916 20.008 150.511 19.933 150.085 19.855L148.762 19.621C148.276 19.537 147.751 19.441 147.187 19.333C146.623 19.219 146.062 19.072 145.504 18.892C144.946 18.706 144.409 18.478 143.893 18.208C143.377 17.938 142.918 17.602 142.516 17.2C142.12 16.792 141.802 16.312 141.562 15.76C141.328 15.202 141.211 14.545 141.211 13.789C141.211 12.835 141.412 11.977 141.814 11.215C142.222 10.453 142.804 9.805 143.56 9.271C144.322 8.737 145.249 8.329 146.341 8.047C147.439 7.759 148.678 7.615 150.058 7.615ZM166.253 18.433C166.253 19.333 166.367 20.143 166.595 20.863C166.829 21.577 167.162 22.183 167.594 22.681C168.026 23.179 168.551 23.563 169.169 23.833C169.793 24.097 170.498 24.229 171.284 24.229C171.806 24.229 172.286 24.169 172.724 24.049C173.168 23.923 173.567 23.737 173.921 23.491C174.281 23.239 174.599 22.93 174.875 22.564C175.157 22.192 175.394 21.763 175.586 21.277H180.653C180.383 22.405 179.96 23.419 179.384 24.319C178.808 25.219 178.109 25.981 177.287 26.605C176.471 27.229 175.541 27.706 174.497 28.036C173.459 28.372 172.337 28.54 171.131 28.54C169.631 28.54 168.266 28.288 167.036 27.784C165.806 27.28 164.75 26.569 163.868 25.651C162.992 24.727 162.311 23.623 161.825 22.339C161.345 21.049 161.105 19.621 161.105 18.055C161.105 16.501 161.342 15.082 161.816 13.798C162.296 12.514 162.971 11.416 163.841 10.504C164.711 9.586 165.755 8.875 166.973 8.371C168.191 7.867 169.541 7.615 171.023 7.615C172.487 7.615 173.816 7.864 175.01 8.362C176.21 8.854 177.233 9.556 178.079 10.468C178.931 11.374 179.588 12.469 180.05 13.753C180.512 15.031 180.743 16.456 180.743 18.028C180.743 18.268 180.737 18.511 180.725 18.757C180.713 18.997 180.695 19.243 180.671 19.495H164.444V16.165H177.827L175.64 19.441C175.664 19.207 175.679 18.976 175.685 18.748C175.697 18.514 175.703 18.286 175.703 18.064C175.703 17.044 175.601 16.15 175.397 15.382C175.199 14.608 174.905 13.96 174.515 13.438C174.125 12.916 173.639 12.523 173.057 12.259C172.481 11.989 171.812 11.854 171.05 11.854C170.294 11.854 169.619 11.986 169.025 12.25C168.431 12.514 167.927 12.898 167.513 13.402C167.105 13.9 166.793 14.512 166.577 15.238C166.361 15.964 166.253 16.786 166.253 17.704V18.433ZM187.661 18.073C187.661 18.991 187.766 19.81 187.976 20.53C188.186 21.244 188.489 21.847 188.885 22.339C189.281 22.831 189.767 23.206 190.343 23.464C190.919 23.716 191.573 23.842 192.305 23.842C192.917 23.842 193.457 23.752 193.925 23.572C194.399 23.392 194.804 23.14 195.14 22.816C195.482 22.486 195.761 22.096 195.977 21.646C196.193 21.196 196.352 20.701 196.454 20.161H201.827C201.665 21.391 201.326 22.519 200.81 23.545C200.3 24.571 199.634 25.453 198.812 26.191C197.996 26.929 197.039 27.505 195.941 27.919C194.843 28.333 193.628 28.54 192.296 28.54C191.306 28.54 190.37 28.429 189.488 28.207C188.606 27.985 187.793 27.661 187.049 27.235C186.305 26.809 185.636 26.293 185.042 25.687C184.448 25.075 183.941 24.382 183.521 23.608C183.107 22.828 182.789 21.976 182.567 21.052C182.345 20.122 182.234 19.129 182.234 18.073C182.234 17.017 182.345 16.027 182.567 15.103C182.789 14.173 183.107 13.321 183.521 12.547C183.941 11.773 184.448 11.08 185.042 10.468C185.636 9.856 186.305 9.34 187.049 8.92C187.793 8.494 188.606 8.17 189.488 7.948C190.37 7.726 191.306 7.615 192.296 7.615C193.628 7.615 194.843 7.822 195.941 8.236C197.039 8.65 197.996 9.226 198.812 9.964C199.634 10.702 200.3 11.584 200.81 12.61C201.326 13.636 201.665 14.764 201.827 15.994H196.454C196.352 15.454 196.193 14.959 195.977 14.509C195.761 14.053 195.482 13.663 195.14 13.339C194.804 13.015 194.399 12.763 193.925 12.583C193.457 12.403 192.917 12.313 192.305 12.313C191.573 12.313 190.919 12.442 190.343 12.7C189.767 12.952 189.281 13.324 188.885 13.816C188.489 14.302 188.186 14.905 187.976 15.625C187.766 16.339 187.661 17.155 187.661 18.073ZM217.18 18.568V8.155H222.571V28H217.18V21.934L217.207 21.907C217.003 22.981 216.697 23.932 216.289 24.76C215.887 25.582 215.389 26.272 214.795 26.83C214.201 27.388 213.52 27.811 212.752 28.099C211.984 28.393 211.135 28.54 210.205 28.54C209.137 28.54 208.192 28.348 207.37 27.964C206.548 27.58 205.861 27.013 205.309 26.263C204.757 25.513 204.337 24.589 204.049 23.491C203.761 22.387 203.617 21.118 203.617 19.684V8.155H209.008V18.784C209.008 19.63 209.086 20.371 209.242 21.007C209.404 21.637 209.644 22.162 209.962 22.582C210.286 23.002 210.688 23.317 211.168 23.527C211.654 23.737 212.221 23.842 212.869 23.842C213.325 23.842 213.748 23.791 214.138 23.689C214.528 23.587 214.882 23.437 215.2 23.239C215.524 23.035 215.809 22.786 216.055 22.492C216.301 22.192 216.505 21.847 216.667 21.457C216.835 21.061 216.961 20.623 217.045 20.143C217.135 19.663 217.18 19.138 217.18 18.568ZM230.262 18.937V28H224.871V8.155H230.262V15.148L230.244 15.175C230.412 14.095 230.67 13.123 231.018 12.259C231.366 11.389 231.813 10.651 232.359 10.045C232.905 9.439 233.553 8.974 234.303 8.65C235.053 8.32 235.917 8.155 236.895 8.155H238.074V13.231H235.995C234.891 13.231 233.97 13.345 233.232 13.573C232.5 13.801 231.912 14.149 231.468 14.617C231.03 15.085 230.718 15.679 230.532 16.399C230.352 17.113 230.262 17.959 230.262 18.937ZM245.273 8.155V28H239.882V8.155H245.273ZM245.327 1.36V6.076H239.828V1.36H245.327ZM260.794 27.847C259.948 28.081 259.156 28.252 258.418 28.36C257.686 28.474 256.996 28.531 256.348 28.531C255.256 28.531 254.296 28.369 253.468 28.045C252.64 27.727 251.947 27.25 251.389 26.614C250.831 25.972 250.408 25.174 250.12 24.22C249.838 23.266 249.697 22.159 249.697 20.899V3.583H255.088V20.908C255.088 21.478 255.139 21.97 255.241 22.384C255.349 22.798 255.508 23.14 255.718 23.41C255.934 23.674 256.207 23.872 256.537 24.004C256.867 24.13 257.263 24.193 257.725 24.193C258.097 24.193 258.529 24.154 259.021 24.076C259.519 23.992 260.11 23.863 260.794 23.689V27.847ZM260.794 12.439H247.213V8.155H260.794V12.439ZM277.034 8.155H282.578L275.009 28.558C274.577 29.74 274.067 30.757 273.479 31.609C272.897 32.467 272.222 33.172 271.454 33.724C270.686 34.282 269.822 34.693 268.862 34.957C267.908 35.227 266.837 35.362 265.649 35.362C265.199 35.362 264.737 35.341 264.263 35.299C263.795 35.257 263.309 35.194 262.805 35.11V30.754C263.219 30.808 263.6 30.85 263.948 30.88C264.296 30.91 264.623 30.925 264.929 30.925C265.499 30.925 266.015 30.874 266.477 30.772C266.939 30.676 267.356 30.523 267.728 30.313C268.106 30.109 268.439 29.845 268.727 29.521C269.021 29.197 269.279 28.81 269.501 28.36L270.005 27.145L269.537 29.269L261.824 8.155H267.494L272.939 26.155H271.517L277.034 8.155Z" fill="white"/>
<defs>
<linearGradient id="paint0_linear_329_68492" x1="15" y1="0.692383" x2="15" y2="35.3078" gradientUnits="userSpaceOnUse">
<stop offset="0.39" stop-color="#A535C5"/>
<stop offset="1" stop-color="#F2C2F9"/>
</linearGradient>
</defs>
</svg>
