<svg width="163" height="139" viewBox="0 0 163 139" fill="none" xmlns="http://www.w3.org/2000/svg">
<path d="M73.0596 123.761C72.8504 124.493 72.7197 125.278 72.6936 126.062C71.4647 125.905 70.2359 125.722 69.0332 125.513C66.5756 125.095 64.1702 124.546 61.791 123.866C60.6929 125.121 59.4641 126.219 58.1307 127.134C57.3202 127.683 56.4312 128.154 55.5423 128.546C55.0978 128.755 54.6272 128.912 54.1566 129.069C53.9213 129.147 53.686 129.226 53.4507 129.278C53.2154 129.356 52.98 129.409 52.7186 129.435C50.7838 129.827 48.823 129.905 47.0189 129.539C46.5745 129.461 46.1039 129.356 45.6855 129.226C45.2411 129.095 44.7966 128.964 44.3783 128.781C43.5416 128.415 42.7311 127.997 41.9729 127.5C43.6985 126.245 45.4764 125.225 47.2804 124.389C48.1955 123.944 49.1106 123.578 50.0256 123.265C50.9407 122.951 51.8297 122.716 52.7709 122.48C53.503 122.297 54.1827 122.193 54.8887 122.114C55.2285 122.088 55.5684 122.036 55.9083 122.036C55.9606 122.036 56.0129 122.036 56.0652 122.036L53.7383 121.121C53.3461 120.964 52.9278 120.807 52.5356 120.624L51.359 120.101L50.2348 119.578C49.738 119.97 49.2413 120.362 48.7184 120.702C47.9079 121.225 47.0712 121.696 46.2084 122.088C45.3456 122.48 44.4306 122.794 43.5155 123.029C42.6004 123.265 41.6592 123.395 40.7179 123.448C40.2473 123.474 39.7767 123.474 39.3061 123.474C39.0708 123.474 38.8355 123.448 38.6002 123.421C38.3649 123.395 38.1557 123.369 37.9204 123.343C37.0315 123.212 36.1425 122.977 35.3059 122.689C34.4692 122.402 33.6849 122.01 32.9267 121.539C32.1946 121.068 31.4887 120.572 30.835 119.996C32.6391 119.081 34.5215 118.349 36.3517 117.826C36.8223 117.696 37.2668 117.591 37.7374 117.486C38.208 117.382 38.6786 117.277 39.1231 117.199C40.0382 117.042 40.9532 116.911 41.8422 116.885C42.5481 116.859 43.2279 116.833 43.9077 116.859C44.326 116.885 44.7182 116.911 45.1365 116.964L44.4829 116.571L43.3586 115.918C42.9926 115.709 42.6265 115.447 42.2605 115.212C41.3454 114.637 40.4565 114.035 39.5675 113.408C38.208 114.166 36.7962 114.767 35.332 115.186C35.1229 115.238 34.8875 115.316 34.6522 115.343C34.4431 115.395 34.2078 115.421 33.9986 115.473C33.5541 115.552 33.1097 115.604 32.6652 115.63C31.7501 115.709 30.835 115.709 29.92 115.604C29.0049 115.499 28.1421 115.316 27.3054 115.055C26.8871 114.924 26.4688 114.767 26.0766 114.611C25.8674 114.532 25.6844 114.454 25.4753 114.349C25.2922 114.244 25.1092 114.14 24.9262 114.035C23.4621 113.199 22.1287 112.127 21.1352 110.819C22.0764 110.532 22.9915 110.27 23.9066 110.087C24.8478 109.878 25.7629 109.721 26.6779 109.591C27.593 109.486 28.5081 109.408 29.3709 109.408C29.8154 109.408 30.2598 109.408 30.7043 109.408C31.1488 109.434 31.5932 109.46 32.0116 109.486C32.6913 109.564 33.345 109.669 33.9463 109.8C34.3646 109.904 34.783 109.983 35.1751 110.087C33.3973 108.649 31.6978 107.107 30.0768 105.512C29.5016 105.721 28.9526 105.904 28.3512 106.061C27.4884 106.296 26.6257 106.427 25.7629 106.532C24.0373 106.689 22.2333 106.584 20.5861 106.113C19.7495 105.878 18.939 105.564 18.1807 105.198C17.4225 104.832 16.7689 104.362 16.1153 103.865C15.8015 103.603 15.4878 103.342 15.2002 103.08C14.9126 102.819 14.625 102.531 14.3897 102.218C13.8929 101.616 13.4485 100.963 13.0563 100.283C14.9126 99.995 16.7428 99.891 18.4945 99.969C20.2724 100.021 21.9718 100.257 23.5667 100.701C24.6648 100.989 25.6583 101.355 26.5472 101.799C24.9785 100.021 23.4882 98.165 22.0764 96.23C20.6645 96.492 19.2266 96.596 17.8147 96.518C17.3964 96.492 16.9781 96.44 16.5597 96.387C16.1414 96.309 15.7492 96.23 15.3571 96.126C14.5466 95.917 13.7622 95.655 13.004 95.289C12.6118 95.106 12.2458 94.923 11.9059 94.714C11.566 94.505 11.2261 94.27 10.9124 94.06C10.2587 93.59 9.6835 93.067 9.1606 92.518C8.8992 92.23 8.6377 91.943 8.4286 91.629C8.1933 91.315 7.9841 91.001 7.8011 90.688C7.4089 90.034 7.069 89.354 6.8076 88.674C10.4418 88.674 13.7883 89.354 16.6905 90.661C16.9781 90.792 17.2395 90.923 17.501 91.08C17.7624 91.211 18.0239 91.367 18.2853 91.498C18.6775 91.707 19.0435 91.943 19.3834 92.204C18.0762 90.112 16.8735 87.969 15.7754 85.746C14.3635 85.772 12.9778 85.668 11.6706 85.328C10.8862 85.145 10.1542 84.883 9.3959 84.57C8.6639 84.256 7.9318 83.89 7.3043 83.445C6.6507 83.001 6.0494 82.504 5.52645 81.955C4.9774 81.432 4.50679 80.857 4.11461 80.23C3.72243 79.602 3.38254 78.975 3.09494 78.295C2.96422 77.955 2.83349 77.615 2.72891 77.275C2.62433 76.935 2.54589 76.569 2.4936 76.229C3.33025 76.36 4.14075 76.543 4.95125 76.752C5.76176 76.961 6.5461 77.197 7.3043 77.484C8.8207 78.033 10.1803 78.765 11.4876 79.602C11.9843 79.942 12.4549 80.282 12.8733 80.648C13.2393 80.935 13.553 81.249 13.8668 81.589L13.7622 81.354L13.2916 80.151C12.9778 79.341 12.6641 78.556 12.3765 77.746L11.566 75.314C11.4614 75 11.383 74.661 11.2784 74.347C9.945 74.164 8.6377 73.798 7.4351 73.301C6.7291 73.013 6.0494 72.647 5.42187 72.255C4.79438 71.837 4.21919 71.366 3.67014 70.8695C3.12109 70.3466 2.62433 69.7976 2.206 69.2224C1.78768 68.621 1.44779 68.0197 1.18634 67.3922C0.898741 66.7647 0.689581 66.1111 0.506561 65.4313C0.375841 64.7777 0.297401 64.0979 0.271261 63.4181C1.02947 63.6796 1.78768 63.9672 2.51975 64.2809C2.88578 64.4378 3.22567 64.6208 3.56556 64.7777C3.90545 64.9607 4.27148 65.1437 4.61137 65.3267C5.97092 66.085 7.1736 66.9478 8.1933 67.9413C9.0038 68.6733 9.6574 69.4315 10.2064 70.2159C9.8143 68.621 9.5005 67 9.2391 65.379L9.0299 64.1241C8.9776 63.7057 8.9253 63.2874 8.873 62.8429L8.8207 62.3723C7.5658 61.9801 6.4154 61.4311 5.31729 60.7775C4.11461 59.9931 3.04265 59.0257 2.15371 57.9015C1.94455 57.6139 1.73539 57.3263 1.52623 57.0387C1.34321 56.7511 1.18634 56.4374 1.02947 56.1236C0.741871 55.5223 0.506561 54.8948 0.323551 54.2412C0.245111 53.9274 0.166681 53.6137 0.114391 53.2738C0.0882407 53.1169 0.062101 52.96 0.035951 52.8032C0.00981098 52.6463 0.00980075 52.4894 0.00980075 52.3326C-0.0163392 51.6789 0.00981095 51.0514 0.0882409 50.424C1.47394 51.1299 2.72891 51.9404 3.85316 52.8555C5.00355 53.7705 6.0232 54.7641 6.8599 55.8622C7.4873 56.6988 8.0364 57.5616 8.4286 58.4244L8.3763 57.7708C8.3501 57.3524 8.2978 56.908 8.2978 56.4896L8.2717 55.2085C8.2717 54.3457 8.2194 53.5091 8.2456 52.6463L8.324 50.1625C7.1997 49.5873 6.1539 48.9075 5.265 48.097C4.24533 47.1819 3.38254 46.11 2.72891 44.9073C2.57204 44.6197 2.41517 44.306 2.31059 43.9922C2.17986 43.6785 2.07528 43.3909 1.99684 43.0771C1.81383 42.4758 1.6831 41.8483 1.60467 41.2208C1.57852 40.9071 1.55237 40.5933 1.52623 40.2796C1.52623 39.9659 1.55237 39.6783 1.57852 39.3645C1.65695 38.7632 1.76154 38.1618 1.91841 37.5866C3.09494 38.4494 4.1669 39.4168 5.08198 40.4365C5.52645 40.9594 5.99706 41.4823 6.3892 42.0313C6.7814 42.5804 7.1475 43.1294 7.4351 43.7046C7.6704 44.1491 7.8795 44.5936 8.0364 45.038C8.2194 45.4825 8.3763 45.927 8.507 46.3714C8.507 46.3976 8.5332 46.4237 8.5332 46.4499C8.5854 45.9531 8.6116 45.4302 8.6639 44.9335L9.0038 42.3974L9.0822 41.7699C9.1083 41.5607 9.1345 41.3516 9.1868 41.1424L9.4221 39.8874L9.6574 38.6325C9.7097 38.4233 9.7358 38.2141 9.7881 37.9788C9.6313 37.8742 9.4744 37.7697 9.3437 37.6389C9.0822 37.4298 8.8207 37.2206 8.5854 36.9853C8.1148 36.5408 7.6442 36.0702 7.252 35.5473C6.8337 35.0506 6.4938 34.5015 6.1539 33.9525C5.84019 33.4034 5.55259 32.8021 5.36958 32.2007C4.9774 30.998 4.82053 29.7692 4.87282 28.5927C4.95126 27.4423 5.265 26.318 5.73561 25.2722C6.703 26.2658 7.5658 27.3116 8.2717 28.4097C8.6377 28.9587 8.9253 29.5078 9.2129 30.083C9.5005 30.6582 9.762 31.2333 9.945 31.8085C10.1019 32.2792 10.2326 32.7236 10.311 33.142C10.4156 33.5864 10.4418 34.0047 10.5202 34.4492C10.5202 34.5277 10.5202 34.6061 10.5463 34.6845C11.3045 31.8347 12.1935 29.011 13.2916 26.2658C12.5072 25.4291 11.8013 24.5402 11.2784 23.5728C10.9908 23.0499 10.7032 22.4747 10.5202 21.9256C10.311 21.3505 10.1803 20.7753 10.0757 20.2001C9.9711 19.5987 9.945 19.0235 9.945 18.4483C9.945 18.1607 9.9711 17.8731 9.9973 17.6117C10.0234 17.3502 10.0757 17.0626 10.1542 16.8012C10.4156 15.7292 10.8339 14.7357 11.4353 13.8729C12.1935 14.9449 12.8471 16.043 13.3439 17.1672C13.6053 17.7163 13.8145 18.2915 13.9714 18.8667C14.0498 19.1542 14.1282 19.4418 14.2067 19.7033C14.2851 19.9909 14.3374 20.2785 14.3897 20.5661C14.5727 21.5858 14.5988 22.5531 14.4943 23.4682C14.5988 23.2591 14.6773 23.076 14.7819 22.8669L15.88 20.5661L17.0826 18.3176C17.2918 17.9516 17.4748 17.5594 17.684 17.1934L18.3376 16.0953C18.4683 15.8599 18.6252 15.6246 18.7559 15.3893C18.1285 14.4743 17.6055 13.533 17.2657 12.5395C16.8996 11.4675 16.6905 10.3433 16.6643 9.2191C16.6382 8.0687 16.8735 7.049 17.2657 6.0816C17.6578 5.1404 18.1807 4.2515 18.8867 3.5717C19.1481 4.1207 19.4096 4.6698 19.5926 5.2188C19.8017 5.7679 19.9848 6.3431 20.1416 6.8921C20.4292 8.0164 20.6122 9.1145 20.5861 10.2126C20.5861 10.6309 20.56 11.0492 20.5338 11.4414C20.4815 11.8336 20.4292 12.2258 20.3508 12.5918C20.3247 12.7487 20.2724 12.9055 20.2201 13.0363C21.3966 11.2845 22.6254 9.5851 23.9327 7.9118C23.9327 6.0555 24.4817 4.2515 25.7367 2.8919C26.0766 2.5259 26.4165 2.2121 26.8087 1.8984C27.2008 1.6108 27.6192 1.4016 28.0636 1.1925C28.9526 0.800299 29.92 0.591099 30.9135 0.512699C30.835 1.5324 30.652 2.4736 30.3121 3.3364C30.1553 3.7809 29.92 4.173 29.6846 4.5652C29.4493 4.9574 29.1879 5.3234 28.8741 5.6895C27.6976 6.9444 26.2073 7.7811 24.3772 8.1733C23.096 9.8727 21.8411 11.5983 20.6907 13.3762C20.8214 13.2716 20.9521 13.1408 21.109 13.0363C21.4228 12.8271 21.7365 12.6179 22.0764 12.4349C22.4163 12.2519 22.7823 12.095 23.1745 11.9643C24.1941 11.6506 25.2661 11.4937 26.3642 11.5198C26.9133 11.546 27.4623 11.5983 28.0375 11.6767C28.6127 11.7813 29.1879 11.912 29.7631 12.095C29.3186 12.7748 28.7957 13.4284 28.0898 13.9252C27.41 14.4481 26.5472 14.8403 25.606 15.1802C24.6386 15.4939 23.5928 15.6769 22.4686 15.7292C21.4489 15.7815 20.4031 15.7554 19.305 15.6246C19.1743 15.86 19.0174 16.0953 18.8867 16.3306L18.2592 17.4287C18.05 17.7947 17.867 18.1869 17.6578 18.5529L16.5074 20.8014L15.4616 23.1022C15.3571 23.3113 15.2786 23.5205 15.174 23.7297C15.7754 23.0499 16.5597 22.4485 17.4487 21.9779C17.684 21.8472 17.9454 21.7165 18.2069 21.6119C18.4683 21.5073 18.7559 21.4027 19.0174 21.3243C19.5664 21.1674 20.1416 21.0367 20.7168 20.9583C21.8934 20.8014 23.096 20.8275 24.351 20.9844C24.0373 21.7949 23.5667 22.5531 22.9392 23.1806C22.7823 23.3375 22.5993 23.4944 22.4163 23.6512C22.2333 23.8081 22.0502 23.965 21.8672 24.0957C21.475 24.3833 21.0306 24.6448 20.56 24.9062C20.0893 25.1415 19.5664 25.3768 19.0174 25.5598C18.4945 25.7429 17.9454 25.8997 17.3702 26.0566C16.3244 26.2919 15.2263 26.4488 14.0759 26.5011C13.004 29.2202 12.1673 32.0177 11.4614 34.8414C11.4876 34.7891 11.5399 34.7107 11.566 34.6584C11.8013 34.3185 12.0889 33.9786 12.4026 33.6649C12.7164 33.3511 13.0563 33.0374 13.4223 32.7759C13.8929 32.4099 14.4158 32.0961 14.9387 31.8347C15.4616 31.5732 16.063 31.3379 16.6643 31.1549C17.867 30.7889 19.1481 30.6059 20.4815 30.5797C20.2985 31.4687 19.9063 32.3053 19.3573 33.0897C18.8344 33.874 18.1023 34.6322 17.1611 35.2859C16.6905 35.6257 16.2198 35.9395 15.6969 36.2271C15.174 36.5147 14.625 36.7761 14.0498 37.0114C13.4746 37.2468 12.8471 37.4559 12.2196 37.6651C11.9059 37.7697 11.5921 37.8481 11.2523 37.9265C11.0692 37.9788 10.8862 38.005 10.7032 38.0573C10.6771 38.2664 10.6248 38.4756 10.5986 38.6847L10.3895 39.9397L10.1803 41.1947C10.128 41.4038 10.1019 41.613 10.0757 41.8222L9.9973 42.4497L9.6835 44.9596C9.6313 45.4564 9.6051 45.9531 9.5528 46.4499C9.579 46.4237 9.579 46.3976 9.579 46.3714C9.762 45.9531 9.9711 45.5609 10.2326 45.1949C10.5202 44.8027 10.8339 44.4367 11.1738 44.0707C11.6183 43.6262 12.0889 43.2079 12.6118 42.8418C13.1347 42.4758 13.6576 42.1359 14.2851 41.8483C15.4878 41.2731 16.795 40.8548 18.2069 40.6195C18.1807 41.0901 18.1023 41.5869 17.9716 42.0313C17.9193 42.2666 17.8409 42.5019 17.7363 42.7373C17.6578 42.9726 17.5533 43.2079 17.4487 43.417C17.2395 43.8876 16.9781 44.3321 16.6382 44.7766C16.4813 44.9857 16.2983 45.2211 16.1153 45.4302C15.9323 45.6394 15.7231 45.8747 15.5139 46.0838C14.7034 46.9466 13.6838 47.731 12.5595 48.4369C11.5399 49.0383 10.494 49.5873 9.3437 50.0841L9.2914 52.5156C9.2914 53.3522 9.3437 54.1889 9.3698 55.0255L9.4221 56.2805C9.4482 56.6988 9.5005 57.1171 9.5267 57.5355L9.579 58.1891C9.8404 57.3001 10.2326 56.4112 10.8339 55.5484C11.5921 54.4503 12.5595 53.5091 13.6838 52.6986C14.8342 51.9142 16.1414 51.2606 17.5533 50.7638C17.6055 51.2606 17.6055 51.7574 17.5533 52.2803C17.5533 52.411 17.5271 52.5417 17.501 52.6724C17.4748 52.8032 17.4748 52.9339 17.4487 53.0646C17.3964 53.3261 17.3441 53.5614 17.2657 53.8228C17.1088 54.3196 16.9258 54.8425 16.6643 55.3654C16.5336 55.6269 16.3767 55.8883 16.2198 56.1498C16.063 56.4112 15.9061 56.6727 15.7231 56.9341C15.0172 57.9799 14.0759 58.9473 13.0301 59.8885C12.1412 60.6729 11.1215 61.4311 10.0234 62.137L10.0757 62.5815C10.128 62.9998 10.1803 63.4181 10.2587 63.8365L10.494 65.0653C10.7555 66.6601 11.0954 68.255 11.5137 69.8237C11.6444 68.8825 11.9059 67.9413 12.3504 67C12.9778 65.7451 13.8145 64.5947 14.8603 63.575C15.1218 63.3136 15.3832 63.0783 15.6708 62.8429C15.9584 62.6076 16.2721 62.3723 16.5859 62.1632C17.2134 61.7187 17.867 61.3265 18.5468 60.9605C18.6775 61.4572 18.7559 61.9801 18.7821 62.5292C18.8344 63.0521 18.8082 63.6012 18.7559 64.1502C18.6775 64.6993 18.5468 65.2744 18.3638 65.8235C18.2069 66.3987 17.9716 66.9739 17.684 67.5752C17.3964 68.1766 17.0565 68.7779 16.6643 69.3531C16.2721 69.9283 15.88 70.5035 15.4093 71.079C14.625 72.046 13.7099 72.987 12.6902 73.902C12.7948 74.216 12.8994 74.556 12.9778 74.87L13.7883 77.249C14.0759 78.033 14.4158 78.818 14.7034 79.576L15.174 80.752L15.2786 80.988C15.2525 80.543 15.3048 80.099 15.3571 79.654C15.4355 79.105 15.5401 78.556 15.6969 78.007C16.063 76.621 16.795 75.262 17.7101 74.059C18.1546 73.458 18.6775 72.857 19.2266 72.308C19.7756 71.758 20.4292 71.236 21.0829 70.7388C21.1874 71 21.292 71.236 21.3705 71.497C21.475 71.758 21.5535 72.02 21.6058 72.281C21.7365 72.804 21.8149 73.379 21.8149 73.955C21.8149 74.53 21.7888 75.131 21.7103 75.759C21.6319 76.386 21.475 77.014 21.2659 77.693C21.0567 78.373 20.8214 79.027 20.5338 79.68C20.2462 80.334 19.9063 81.014 19.5142 81.694C18.8344 82.844 18.1023 83.968 17.2134 85.066C18.3115 87.236 19.5403 89.328 20.8476 91.367C20.7691 90.949 20.7168 90.505 20.6907 90.034C20.6645 89.746 20.6645 89.459 20.6907 89.171C20.6907 88.884 20.7168 88.57 20.7691 88.282C21.0829 85.249 22.73 82.321 25.0831 79.89C25.3968 80.36 25.6844 80.857 25.8936 81.38C25.9982 81.641 26.1027 81.929 26.1812 82.19C26.2596 82.478 26.3119 82.766 26.3903 83.053C26.5211 83.628 26.5734 84.256 26.5995 84.91C26.5995 85.249 26.5995 85.563 26.5734 85.929C26.5472 86.269 26.5211 86.609 26.4949 86.975C26.4165 87.681 26.2596 88.413 26.0766 89.171C25.972 89.537 25.8674 89.903 25.7367 90.295C25.606 90.661 25.5014 91.028 25.3707 91.42C24.9001 92.675 24.3249 93.956 23.619 95.237C25.0046 97.093 26.4688 98.897 28.0375 100.623C27.7238 99.682 27.5146 98.662 27.4623 97.616C27.41 96.021 27.6453 94.4 28.1682 92.832C28.7173 91.237 29.5278 89.694 30.5474 88.23C30.9396 88.674 31.3057 89.145 31.5932 89.642C31.724 89.903 31.8808 90.165 32.0116 90.426C32.1423 90.688 32.273 90.975 32.3776 91.263C32.5868 91.838 32.7436 92.492 32.8744 93.145C33.0051 93.799 33.0835 94.505 33.1097 95.263C33.1358 96.806 33.0312 98.348 32.6913 100.021C32.5345 100.832 32.3253 101.695 32.09 102.531C31.9331 103.08 31.7501 103.656 31.5671 104.231C33.162 105.773 34.8614 107.238 36.587 108.623C36.404 108.283 36.221 107.917 36.0641 107.525C35.8549 106.95 35.6719 106.322 35.5412 105.695C35.4627 105.303 35.3843 104.884 35.332 104.466C35.2797 104.048 35.2536 103.656 35.2536 103.211C35.2536 102.348 35.332 101.512 35.4627 100.649C35.5935 99.786 35.8026 98.95 36.0902 98.087C36.3778 97.224 36.7439 96.361 37.136 95.524C38.0773 96.309 38.9139 97.198 39.5153 98.348C39.5937 98.479 39.6721 98.636 39.7244 98.793C39.8029 98.923 39.8813 99.08 39.9336 99.237C40.0643 99.551 40.195 99.865 40.3258 100.178C40.5611 100.832 40.7441 101.564 40.901 102.348C41.0578 103.107 41.1624 103.917 41.2408 104.728C41.267 105.146 41.2931 105.564 41.2931 105.983C41.2931 106.192 41.2931 106.427 41.2931 106.636C41.2931 106.845 41.2931 107.055 41.2931 107.29C41.267 108.728 41.1101 110.218 40.8487 111.761C41.7115 112.362 42.6004 112.937 43.4893 113.486C43.8554 113.695 44.1953 113.931 44.5613 114.14L45.6594 114.767L46.313 115.133C46.0777 114.82 45.8424 114.48 45.6332 114.14C45.2934 113.591 45.0058 113.016 44.7704 112.362C44.4567 111.552 44.2475 110.715 44.0907 109.852C44.0122 109.434 43.9599 108.989 43.9077 108.545C43.8815 108.1 43.8554 107.656 43.8554 107.185C43.8815 105.355 44.1691 103.525 44.7443 101.669C46.9666 102.871 48.5877 104.963 49.738 107.996C50.0256 108.754 50.2609 109.564 50.444 110.401C50.6531 111.212 50.81 112.101 50.9407 112.99C51.0715 113.878 51.1499 114.82 51.2022 115.787C51.2283 116.388 51.2545 116.99 51.2545 117.617L52.3264 118.088L53.4768 118.611C53.869 118.768 54.2612 118.924 54.6534 119.081L56.928 119.944C56.8757 119.892 56.8495 119.866 56.7973 119.813C56.5619 119.578 56.3528 119.343 56.1436 119.081C55.7253 118.558 55.307 118.009 54.9671 117.408C54.4965 116.676 54.1304 115.813 53.8428 114.95C53.5552 114.088 53.3199 113.199 53.1892 112.284C52.9016 110.427 52.9278 108.44 53.2154 106.479C53.8428 106.689 54.418 106.976 54.9671 107.342C55.2285 107.525 55.5161 107.682 55.7776 107.891C56.039 108.1 56.3005 108.31 56.5619 108.545C57.5555 109.512 58.4967 110.636 59.3333 112.127C59.4379 112.31 59.5425 112.493 59.6471 112.702C59.7517 112.885 59.8562 113.068 59.9347 113.277C60.1177 113.669 60.3007 114.061 60.4837 114.48C60.8236 115.29 61.1374 116.179 61.425 117.068C61.8956 118.506 62.2616 120.075 62.5492 121.696C64.85 122.323 67.2031 122.82 69.5561 123.212C70.6281 123.474 71.8569 123.631 73.0596 123.761Z" fill="#E1E0E9"/>
<path d="M162.764 52.28C162.764 52.4369 162.738 52.5938 162.738 52.7506C162.712 52.9075 162.686 53.0644 162.659 53.2213C162.607 53.535 162.529 53.8749 162.45 54.1886C162.267 54.8161 162.032 55.4436 161.744 56.0711C161.588 56.3848 161.431 56.6724 161.248 56.9862C161.065 57.2738 160.855 57.5614 160.62 57.849C159.731 58.9994 158.685 59.9667 157.457 60.7249C156.385 61.4047 155.208 61.9276 153.953 62.3198L153.901 62.7904C153.849 63.2087 153.796 63.6532 153.744 64.0715L153.535 65.3265C153.273 66.9475 152.96 68.5685 152.567 70.1634C153.09 69.379 153.77 68.6208 154.581 67.8887C155.6 66.8952 156.829 66.0324 158.163 65.2742C158.502 65.0912 158.842 64.9082 159.208 64.7252C159.548 64.5421 159.914 64.3853 160.254 64.2284C160.986 63.9147 161.718 63.6271 162.503 63.3656C162.476 64.0454 162.424 64.7252 162.267 65.3788C162.11 66.0324 161.875 66.6861 161.588 67.3397C161.3 67.9672 160.96 68.5947 160.568 69.1698C160.15 69.745 159.653 70.3203 159.104 70.817C158.555 71.34 157.953 71.811 157.352 72.203C156.725 72.621 156.019 72.961 155.339 73.249C154.136 73.771 152.829 74.111 151.495 74.294C151.391 74.608 151.312 74.948 151.208 75.262L150.397 77.693C150.11 78.504 149.796 79.288 149.482 80.099L149.012 81.301L148.907 81.537C149.221 81.223 149.535 80.909 149.901 80.595C150.319 80.229 150.79 79.889 151.286 79.55C152.594 78.713 153.927 78.007 155.47 77.432C156.228 77.144 157.012 76.909 157.823 76.7C158.633 76.491 159.444 76.308 160.28 76.177C160.228 76.517 160.15 76.883 160.045 77.223C159.94 77.562 159.81 77.902 159.679 78.242C159.391 78.896 159.078 79.55 158.659 80.177C158.267 80.804 157.796 81.38 157.247 81.903C156.698 82.425 156.123 82.948 155.47 83.393C154.842 83.837 154.11 84.203 153.378 84.517C152.646 84.831 151.888 85.092 151.103 85.275C149.796 85.589 148.41 85.72 146.999 85.694C145.9 87.89 144.698 90.06 143.39 92.152C143.73 91.916 144.096 91.681 144.489 91.446C144.75 91.315 145.011 91.158 145.273 91.027C145.534 90.897 145.796 90.74 146.083 90.609C148.986 89.302 152.332 88.648 155.966 88.622C155.705 89.328 155.365 90.008 154.973 90.635C154.764 90.949 154.581 91.289 154.345 91.576C154.11 91.89 153.875 92.178 153.613 92.465C153.09 93.04 152.489 93.537 151.862 94.008C151.548 94.243 151.208 94.478 150.868 94.661C150.528 94.871 150.136 95.054 149.77 95.237C149.012 95.577 148.227 95.864 147.417 96.073C147.025 96.178 146.606 96.256 146.214 96.335C145.796 96.413 145.377 96.439 144.959 96.465C143.547 96.544 142.109 96.465 140.698 96.178C139.312 98.113 137.795 99.969 136.227 101.747C137.116 101.302 138.109 100.91 139.207 100.649C140.802 100.204 142.502 99.969 144.279 99.917C146.031 99.838 147.861 99.943 149.718 100.23C149.325 100.91 148.881 101.564 148.384 102.165C148.149 102.479 147.861 102.766 147.574 103.028C147.286 103.289 146.972 103.577 146.659 103.812C146.031 104.309 145.351 104.78 144.593 105.146C143.835 105.512 143.051 105.825 142.188 106.061C140.541 106.558 138.737 106.636 137.011 106.479C136.148 106.401 135.285 106.244 134.423 106.008C133.847 105.852 133.272 105.669 132.697 105.459C131.076 107.054 129.377 108.597 127.599 110.035C127.991 109.93 128.409 109.826 128.828 109.747C129.455 109.617 130.083 109.512 130.762 109.434C131.207 109.381 131.625 109.355 132.07 109.355C132.514 109.355 132.959 109.355 133.403 109.355C134.292 109.355 135.181 109.434 136.096 109.538C137.011 109.643 137.952 109.826 138.867 110.035C139.782 110.244 140.724 110.479 141.639 110.767C140.645 112.1 139.312 113.146 137.848 113.983C137.665 114.087 137.482 114.192 137.299 114.297C137.089 114.375 136.906 114.48 136.697 114.558C136.305 114.715 135.887 114.872 135.468 115.002C134.632 115.264 133.769 115.473 132.854 115.552C131.939 115.63 131.024 115.656 130.109 115.578C129.664 115.552 129.22 115.499 128.775 115.421C128.54 115.395 128.331 115.342 128.122 115.29C127.886 115.238 127.677 115.185 127.442 115.133C125.978 114.741 124.54 114.14 123.206 113.355C122.317 113.983 121.428 114.584 120.513 115.159C120.147 115.395 119.807 115.63 119.415 115.865L118.291 116.519L117.637 116.911C118.03 116.859 118.448 116.833 118.866 116.806C119.52 116.78 120.226 116.806 120.932 116.833C121.821 116.885 122.736 116.99 123.651 117.146C124.121 117.225 124.566 117.329 125.037 117.434C125.481 117.539 125.952 117.643 126.422 117.774C128.252 118.297 130.135 119.029 131.939 119.944C131.311 120.519 130.605 121.042 129.847 121.486C129.115 121.931 128.331 122.349 127.468 122.637C126.631 122.924 125.742 123.16 124.853 123.291C124.618 123.317 124.409 123.369 124.174 123.369C123.938 123.395 123.703 123.395 123.468 123.421C122.997 123.447 122.527 123.421 122.056 123.395C121.089 123.343 120.173 123.212 119.258 122.977C118.343 122.741 117.428 122.402 116.565 122.036C115.703 121.643 114.866 121.173 114.056 120.65C113.533 120.31 113.036 119.918 112.539 119.526L111.415 120.048L110.238 120.571C109.846 120.754 109.454 120.885 109.036 121.068L106.709 121.983C106.761 121.983 106.813 121.983 106.866 121.983C107.205 122.009 107.545 122.036 107.885 122.062C108.565 122.14 109.271 122.271 110.003 122.428C110.918 122.663 111.833 122.898 112.748 123.212C113.663 123.526 114.578 123.918 115.494 124.336C117.298 125.173 119.075 126.219 120.801 127.448C120.043 127.944 119.232 128.363 118.396 128.729C117.977 128.912 117.533 129.042 117.088 129.173C116.644 129.304 116.199 129.408 115.755 129.487C113.951 129.853 111.99 129.801 110.055 129.382C109.82 129.33 109.585 129.278 109.323 129.225C109.088 129.147 108.853 129.095 108.617 129.016C108.147 128.859 107.676 128.676 107.232 128.493C106.317 128.101 105.454 127.631 104.643 127.082C103.284 126.166 102.055 125.068 100.983 123.813C98.6041 124.493 96.1721 125.042 93.7408 125.461C92.5381 125.67 91.3093 125.853 90.0804 126.01C90.0543 125.199 89.9497 124.441 89.7144 123.709C90.9432 123.578 92.172 123.421 93.4009 123.212C95.7539 122.82 98.1071 122.323 100.408 121.696C100.695 120.048 101.061 118.506 101.532 117.068C101.82 116.153 102.133 115.29 102.473 114.48C102.656 114.061 102.839 113.669 103.022 113.277C103.127 113.094 103.231 112.885 103.31 112.702C103.414 112.519 103.519 112.31 103.624 112.126C104.434 110.636 105.375 109.512 106.395 108.545C106.656 108.309 106.918 108.1 107.179 107.891C107.441 107.682 107.728 107.525 107.99 107.342C108.539 106.976 109.114 106.714 109.742 106.479C110.003 108.466 110.055 110.427 109.768 112.283C109.611 113.198 109.402 114.087 109.114 114.95C108.826 115.813 108.46 116.676 107.99 117.408C107.624 118.009 107.232 118.558 106.813 119.081C106.604 119.343 106.369 119.578 106.16 119.813C106.107 119.865 106.081 119.892 106.029 119.944L108.304 119.081C108.696 118.924 109.088 118.794 109.48 118.611L110.63 118.088L111.702 117.617C111.702 116.99 111.729 116.388 111.755 115.787C111.807 114.819 111.885 113.878 112.016 112.989C112.147 112.1 112.304 111.211 112.513 110.401C112.722 109.564 112.931 108.754 113.219 107.996C114.369 104.963 115.99 102.871 118.213 101.668C118.788 103.525 119.075 105.355 119.102 107.185C119.102 107.63 119.102 108.1 119.049 108.545C119.023 108.989 118.945 109.407 118.866 109.852C118.709 110.715 118.474 111.551 118.186 112.362C117.951 113.015 117.664 113.591 117.324 114.14C117.115 114.48 116.879 114.819 116.644 115.133L117.298 114.767L118.396 114.14C118.762 113.931 119.102 113.695 119.468 113.486C120.357 112.937 121.245 112.362 122.108 111.76C121.847 110.218 121.69 108.728 121.664 107.29C121.664 107.08 121.664 106.871 121.664 106.636C121.664 106.427 121.664 106.192 121.664 105.982C121.664 105.564 121.69 105.12 121.716 104.727C121.768 103.891 121.873 103.106 122.056 102.348C122.213 101.59 122.396 100.858 122.631 100.178C122.736 99.838 122.866 99.524 123.023 99.237C123.102 99.08 123.154 98.949 123.232 98.792C123.311 98.636 123.363 98.505 123.442 98.348C124.043 97.198 124.906 96.309 125.821 95.524C126.239 96.361 126.579 97.224 126.867 98.086C127.154 98.949 127.363 99.786 127.494 100.649C127.625 101.512 127.703 102.348 127.703 103.211C127.703 103.629 127.677 104.048 127.625 104.466C127.573 104.884 127.52 105.276 127.416 105.695C127.285 106.322 127.102 106.95 126.893 107.525C126.736 107.917 126.579 108.283 126.37 108.623C128.122 107.237 129.795 105.773 131.39 104.231C131.207 103.655 131.024 103.106 130.867 102.531C130.632 101.695 130.422 100.832 130.266 100.021C129.926 98.374 129.821 96.805 129.847 95.263C129.873 94.505 129.952 93.799 130.083 93.145C130.213 92.491 130.344 91.838 130.579 91.263C130.684 90.975 130.815 90.687 130.945 90.426C131.076 90.164 131.233 89.903 131.364 89.642C131.651 89.119 132.017 88.648 132.409 88.23C133.429 89.694 134.24 91.236 134.789 92.831C135.285 94.4 135.547 96.021 135.495 97.616C135.442 98.688 135.233 99.681 134.919 100.623C136.488 98.897 137.952 97.119 139.338 95.237C138.632 93.956 138.031 92.674 137.586 91.419C137.456 91.053 137.325 90.687 137.22 90.295C137.089 89.929 136.985 89.537 136.88 89.171C136.671 88.439 136.54 87.707 136.462 86.975C136.41 86.609 136.384 86.269 136.384 85.929C136.357 85.589 136.357 85.249 136.357 84.909C136.357 84.256 136.436 83.628 136.567 83.053C136.645 82.765 136.697 82.478 136.776 82.19C136.854 81.903 136.933 81.641 137.063 81.38C137.272 80.857 137.534 80.36 137.874 79.889C140.227 82.321 141.848 85.275 142.188 88.282C142.214 88.57 142.24 88.883 142.266 89.171C142.292 89.459 142.292 89.746 142.266 90.034C142.24 90.478 142.188 90.923 142.109 91.367C143.417 89.328 144.645 87.21 145.744 85.066C144.881 83.968 144.123 82.844 143.443 81.693C143.051 81.014 142.711 80.36 142.423 79.68C142.135 79.027 141.9 78.347 141.691 77.693C141.482 77.013 141.351 76.386 141.247 75.758C141.168 75.131 141.142 74.556 141.142 73.954C141.142 73.379 141.22 72.83 141.351 72.281C141.43 72.02 141.508 71.758 141.586 71.497C141.665 71.235 141.769 70.9739 141.874 70.7386C142.528 71.235 143.155 71.758 143.73 72.307C144.279 72.856 144.802 73.432 145.247 74.059C146.162 75.288 146.894 76.621 147.26 78.007C147.417 78.556 147.521 79.105 147.6 79.654C147.652 80.099 147.678 80.543 147.678 80.987L147.783 80.752L148.253 79.576C148.567 78.791 148.881 78.033 149.169 77.249L149.979 74.87C150.084 74.556 150.188 74.242 150.267 73.902C149.247 73.013 148.332 72.046 147.548 71.078C147.077 70.5033 146.685 69.9281 146.293 69.3529C145.9 68.7515 145.561 68.1763 145.273 67.575C144.985 66.9737 144.75 66.3985 144.593 65.8233C144.41 65.2481 144.279 64.699 144.201 64.15C144.123 63.6009 144.123 63.0519 144.175 62.529C144.201 62.0061 144.279 61.4832 144.41 60.9602C145.09 61.3263 145.77 61.7185 146.371 62.1629C146.685 62.3721 146.972 62.6074 147.286 62.8427C147.574 63.078 147.835 63.3133 148.097 63.5748C149.142 64.5944 149.979 65.7448 150.607 66.9998C151.025 67.941 151.312 68.8822 151.443 69.8235C151.835 68.2548 152.201 66.6599 152.463 65.0651L152.698 63.8362C152.777 63.4179 152.803 62.9996 152.881 62.5813L152.933 62.1368C151.835 61.457 150.816 60.6988 149.927 59.8883C148.855 58.9732 147.94 57.9797 147.234 56.9339C147.051 56.6724 146.894 56.411 146.737 56.1495C146.58 55.8881 146.423 55.6266 146.293 55.3652C146.031 54.8423 145.822 54.3455 145.691 53.8226C145.613 53.5611 145.561 53.3258 145.508 53.0644C145.482 52.9337 145.482 52.8029 145.456 52.6722C145.43 52.5415 145.404 52.4107 145.404 52.28C145.351 51.7833 145.351 51.2604 145.404 50.7636C146.815 51.2604 148.123 51.8878 149.273 52.6983C150.397 53.4827 151.365 54.4501 152.123 55.5482C152.724 56.411 153.116 57.2738 153.378 58.1888L153.43 57.5352C153.456 57.1169 153.509 56.6986 153.535 56.2803L153.587 55.0253C153.613 54.1886 153.639 53.352 153.666 52.5153L153.613 50.0838C152.463 49.6132 151.417 49.0642 150.397 48.4367C149.247 47.7308 148.253 46.9464 147.443 46.0836C147.234 45.8744 147.051 45.6391 146.842 45.43C146.659 45.2208 146.476 44.9855 146.319 44.7763C146.005 44.3319 145.717 43.8874 145.508 43.4168C145.404 43.1815 145.299 42.9462 145.221 42.737C145.142 42.5017 145.064 42.2664 144.985 42.0311C144.855 41.5605 144.776 41.0899 144.75 40.6193C146.136 40.8546 147.443 41.2729 148.672 41.8481C149.273 42.1357 149.822 42.4756 150.345 42.8416C150.868 43.2076 151.339 43.626 151.783 44.0704C152.123 44.4365 152.437 44.8025 152.724 45.1947C152.986 45.5868 153.195 45.979 153.378 46.3712C153.378 46.3974 153.404 46.4235 153.404 46.4496C153.378 45.9529 153.326 45.4561 153.273 44.9594L152.96 42.4494L152.881 41.8219C152.855 41.6128 152.829 41.4036 152.777 41.1944L152.567 39.9395L152.358 38.6845C152.332 38.4753 152.28 38.2662 152.254 38.057C152.071 38.0047 151.888 37.9786 151.705 37.9263C151.365 37.8479 151.051 37.7433 150.737 37.6648C150.11 37.4818 149.482 37.2727 148.907 37.0112C148.332 36.7759 147.783 36.5144 147.26 36.2268C146.737 35.9392 146.266 35.6255 145.796 35.2856C144.855 34.6058 144.123 33.8738 143.6 33.0894C143.051 32.3051 142.658 31.4684 142.475 30.5795C143.809 30.6056 145.09 30.7886 146.293 31.1547C146.894 31.3377 147.495 31.5469 148.018 31.8345C148.541 32.0959 149.064 32.4096 149.535 32.7757C149.901 33.0633 150.241 33.3509 150.554 33.6646C150.868 33.9784 151.156 34.3182 151.391 34.6581C151.417 34.7104 151.469 34.7889 151.495 34.8412C150.763 32.0175 149.927 29.2199 148.881 26.5008C147.731 26.4485 146.606 26.2917 145.587 26.0564C145.011 25.9256 144.462 25.7688 143.94 25.5596C143.39 25.3766 142.868 25.1674 142.397 24.906C141.9 24.6707 141.482 24.3831 141.09 24.0955C140.881 23.9386 140.698 23.8079 140.541 23.651C140.358 23.4941 140.175 23.3372 140.018 23.1804C139.364 22.5267 138.893 21.7947 138.606 20.9842C139.861 20.8012 141.064 20.8012 142.24 20.958C142.815 21.0365 143.39 21.1672 143.94 21.3241C144.227 21.4025 144.489 21.5071 144.75 21.6117C145.011 21.7162 145.247 21.847 145.508 21.9777C146.397 22.4483 147.155 23.0496 147.783 23.7294C147.678 23.5203 147.574 23.3111 147.495 23.1019L146.449 20.8012L145.299 18.5527C145.09 18.1866 144.907 17.7945 144.698 17.4284L144.07 16.3303C143.94 16.095 143.809 15.8597 143.652 15.6244C142.554 15.7551 141.508 15.7813 140.488 15.729C139.364 15.6767 138.292 15.4937 137.351 15.1799C136.41 14.84 135.547 14.4479 134.867 13.925C134.161 13.4021 133.638 12.7746 133.194 12.0948C133.769 11.9118 134.344 11.781 134.919 11.6765C135.495 11.5719 136.044 11.5196 136.593 11.5196C137.691 11.4934 138.763 11.6503 139.782 11.9641C140.175 12.0948 140.541 12.2517 140.881 12.4347C141.22 12.6177 141.56 12.8269 141.848 13.036C141.979 13.1406 142.135 13.2452 142.266 13.3759C141.116 11.598 139.887 9.8724 138.58 8.173C136.75 7.7808 135.259 6.9442 134.083 5.6892C133.769 5.3493 133.508 4.9833 133.272 4.565C133.037 4.1728 132.828 3.7806 132.645 3.3361C132.305 2.4733 132.096 1.5321 132.043 0.512501C133.037 0.564701 134.004 0.8 134.867 1.1922C135.312 1.4014 135.73 1.6106 136.122 1.8981C136.514 2.1857 136.854 2.5256 137.194 2.8917C138.449 4.2251 138.998 6.0291 138.998 7.8854C140.305 9.5326 141.56 11.2581 142.711 13.0099C142.658 12.853 142.632 12.7223 142.58 12.5654C142.502 12.1994 142.423 11.8072 142.397 11.415C142.371 11.0228 142.345 10.6045 142.345 10.1862C142.345 9.1142 142.502 7.99 142.789 6.8657C142.946 6.3167 143.129 5.7415 143.338 5.1924C143.547 4.6434 143.783 4.0943 144.044 3.5453C144.75 4.2251 145.273 5.114 145.665 6.0552C146.057 6.9965 146.266 8.0423 146.266 9.1927C146.266 10.3169 146.057 11.4412 145.665 12.5131C145.325 13.5066 144.802 14.474 144.175 15.3629C144.306 15.5983 144.462 15.8336 144.593 16.0689L145.247 17.167C145.456 17.533 145.639 17.9252 145.848 18.2912L147.051 20.5397L148.149 22.8405C148.253 23.0497 148.332 23.2327 148.437 23.4418C148.332 22.5267 148.358 21.5855 148.541 20.5397C148.593 20.2521 148.646 19.9645 148.724 19.6769C148.803 19.3893 148.855 19.1017 148.959 18.8403C149.116 18.2651 149.352 17.716 149.587 17.1408C150.084 16.0166 150.737 14.8923 151.495 13.8465C152.097 14.7355 152.515 15.729 152.777 16.7748C152.829 17.0362 152.881 17.2977 152.933 17.5853C152.96 17.8729 152.986 18.1605 152.986 18.4219C152.986 18.9971 152.96 19.5723 152.855 20.1737C152.75 20.775 152.62 21.3502 152.411 21.8993C152.201 22.4745 151.94 23.0235 151.652 23.5464C151.103 24.5138 150.424 25.4027 149.639 26.2394C150.737 28.9846 151.626 31.8083 152.384 34.6581C152.384 34.5797 152.384 34.5013 152.411 34.4228C152.463 33.9784 152.515 33.56 152.62 33.1156C152.724 32.6711 152.829 32.2266 152.986 31.7822C153.195 31.207 153.43 30.6318 153.718 30.0566C154.005 29.4814 154.319 28.9323 154.659 28.3833C155.365 27.2852 156.228 26.2394 157.195 25.2458C157.666 26.2655 157.98 27.3898 158.058 28.5663C158.11 29.7428 157.953 30.9455 157.561 32.1743C157.378 32.7757 157.091 33.377 156.777 33.9261C156.463 34.4751 156.097 35.0242 155.679 35.5209C155.287 36.0177 154.816 36.5144 154.345 36.9589C154.11 37.1942 153.849 37.4034 153.587 37.6126C153.43 37.7171 153.273 37.8217 153.143 37.9524C153.195 38.1616 153.221 38.3708 153.273 38.6061L153.509 39.861L153.744 41.116C153.796 41.3252 153.822 41.5343 153.849 41.7435L153.927 42.371L154.267 44.9071C154.319 45.4038 154.371 45.9267 154.398 46.4235C154.398 46.3973 154.398 46.3712 154.424 46.3451C154.554 45.9006 154.711 45.4561 154.894 45.0116C155.051 44.5672 155.26 44.1227 155.496 43.6782C155.809 43.103 156.149 42.554 156.542 42.0049C156.934 41.4559 157.404 40.933 157.849 40.4101C158.764 39.3904 159.836 38.423 161.012 37.5603C161.169 38.1355 161.3 38.7368 161.352 39.3381C161.378 39.6519 161.405 39.9395 161.405 40.2532C161.405 40.567 161.378 40.8807 161.352 41.1944C161.274 41.8219 161.143 42.4233 160.96 43.0508C160.855 43.3645 160.751 43.6521 160.646 43.9658C160.516 44.2796 160.385 44.5672 160.228 44.8809C159.574 46.0836 158.712 47.1556 157.692 48.0706C156.829 48.8811 155.757 49.5609 154.633 50.1361L154.711 52.6199C154.711 53.4827 154.685 54.3194 154.685 55.1821L154.659 56.4633C154.633 56.8816 154.607 57.3261 154.581 57.7444L154.345 58.3457C154.737 57.4829 155.287 56.6463 155.914 55.7835C156.725 54.6854 157.744 53.6919 158.921 52.7768C160.045 51.8617 161.3 51.0512 162.686 50.3453C162.764 50.9989 162.79 51.6264 162.764 52.28Z" fill="#E1E0E9"/>
<path d="M93.7143 125.539C93.662 124.754 93.5575 124.022 93.3744 123.29C92.041 117.904 87.178 113.904 81.3738 113.904C75.5695 113.904 70.7065 117.904 69.3731 123.29C69.1901 124.022 69.0855 124.781 69.0332 125.539C69.0332 125.774 69.0071 126.009 69.0071 126.271C69.0071 133.095 74.5499 138.638 81.3738 138.638C88.1977 138.638 93.7405 133.095 93.7405 126.271C93.7405 126.009 93.7405 125.774 93.7143 125.539ZM81.3999 134.925C76.6153 134.925 72.7197 131.029 72.7197 126.245C72.7197 126.192 72.7197 126.114 72.7197 126.062C72.7458 125.251 72.8504 124.493 73.0857 123.761C74.1577 120.179 77.4781 117.565 81.3999 117.565C85.3217 117.565 88.6422 120.179 89.7141 123.761C89.9233 124.493 90.054 125.277 90.0801 126.062C90.0801 126.114 90.0801 126.192 90.0801 126.245C90.054 131.029 86.1845 134.925 81.3999 134.925Z" fill="#E1E0E9"/>
<path fill-rule="evenodd" clip-rule="evenodd" d="M72.9551 99.833L80.8331 101.724L92.6279 95.516L84.6386 104.217L80.8331 107.911L77.1389 104.128L72.9551 99.833Z" fill="#E1E0E9"/>
<path d="M69.3125 5.7969C69.3125 3.0096 71.5721 0.75 74.3594 0.75H78.6094C81.3967 0.75 83.6562 3.0096 83.6562 5.7969C83.6562 8.5842 81.3967 10.8438 78.6094 10.8438H74.3594C71.5721 10.8438 69.3125 8.5842 69.3125 5.7969Z" fill="url(#paint0_linear_51_1082)"/>
<path d="M78.1319 12.4375C78.5784 12.4375 78.8017 12.4375 78.99 12.4268C82.38 12.2341 85.0786 9.5152 85.2458 6.1238C85.255 5.9355 85.2534 5.7122 85.25 5.2656C88.0373 5.2656 90.2969 7.5252 90.2969 10.3125C90.2969 13.0998 88.0373 15.3594 85.25 15.3594H79.3523C77.7386 15.3594 76.4304 14.0512 76.4304 12.4375H78.1319Z" fill="url(#paint1_linear_51_1082)"/>
<path d="M62.7331 71.625H61.8524C61.8003 71.372 61.7091 71.149 61.5789 70.9574C61.4511 70.7656 61.2948 70.6046 61.1102 70.4744C60.9279 70.3419 60.7255 70.2424 60.5029 70.1761C60.2804 70.1098 60.0484 70.0767 59.8069 70.0767C59.3666 70.0767 58.9677 70.188 58.6102 70.4105C58.2551 70.633 57.9722 70.9609 57.7615 71.394C57.5531 71.827 57.449 72.359 57.449 72.989C57.449 73.618 57.5531 74.15 57.7615 74.583C57.9722 75.016 58.2551 75.344 58.6102 75.567C58.9677 75.789 59.3666 75.901 59.8069 75.901C60.0484 75.901 60.2804 75.867 60.5029 75.801C60.7255 75.735 60.9279 75.637 61.1102 75.506C61.2948 75.374 61.4511 75.212 61.5789 75.02C61.7091 74.826 61.8003 74.603 61.8524 74.352H62.7331C62.6668 74.724 62.546 75.057 62.3708 75.35C62.1956 75.644 61.9778 75.893 61.7174 76.099C61.457 76.303 61.1646 76.458 60.8403 76.565C60.5183 76.671 60.1739 76.724 59.8069 76.724C59.1867 76.724 58.635 76.573 58.1521 76.27C57.6691 75.967 57.2892 75.536 57.0122 74.977C56.7352 74.419 56.5967 73.756 56.5967 72.989C56.5967 72.222 56.7352 71.559 57.0122 71C57.2892 70.4413 57.6691 70.0104 58.1521 69.7074C58.635 69.4044 59.1867 69.2528 59.8069 69.2528C60.1739 69.2528 60.5183 69.3061 60.8403 69.4126C61.1646 69.5192 61.457 69.6754 61.7174 69.8814C61.9778 70.085 62.1956 70.3336 62.3708 70.6271C62.546 70.9183 62.6668 71.251 62.7331 71.625ZM64.1562 76.625V69.3523H68.5454V70.1335H65.0369V72.591H68.3181V73.372H65.0369V75.844H68.6022V76.625H64.1562ZM70.1327 76.625V69.3523H72.5901C73.1583 69.3523 73.6247 69.4493 73.9893 69.6435C74.3539 69.8352 74.6237 70.0992 74.7989 70.4354C74.9741 70.7715 75.0617 71.154 75.0617 71.582C75.0617 72.011 74.9741 72.391 74.7989 72.722C74.6237 73.054 74.355 73.314 73.9928 73.504C73.6306 73.691 73.1678 73.784 72.6043 73.784H70.6157V72.989H72.5759C72.9642 72.989 73.2767 72.932 73.5134 72.818C73.7525 72.705 73.9253 72.544 74.0319 72.335C74.1408 72.125 74.1952 71.874 74.1952 71.582C74.1952 71.291 74.1408 71.037 74.0319 70.8189C73.923 70.6011 73.749 70.433 73.5099 70.3146C73.2708 70.1939 72.9547 70.1335 72.5617 70.1335H71.0134V76.625H70.1327ZM73.556 73.358L75.3458 76.625H74.3231L72.5617 73.358H73.556ZM76.1315 70.1335V69.3523H81.586V70.1335H79.2991V76.625H78.4184V70.1335H76.1315ZM83.8259 69.3523V76.625H82.9452V69.3523H83.8259ZM85.5917 76.625V69.3523H89.9525V70.1335H86.4724V72.591H89.6258V73.372H86.4724V76.625H85.5917ZM92.3415 69.3523V76.625H91.4609V69.3523H92.3415ZM94.1073 76.625V69.3523H98.4961V70.1335H94.988V72.591H98.2691V73.372H94.988V75.844H98.5531V76.625H94.1073ZM102.328 76.625H100.084V69.3523H102.428C103.133 69.3523 103.737 69.4979 104.239 69.7891C104.741 70.0779 105.125 70.4934 105.393 71.036C105.66 71.575 105.794 72.222 105.794 72.974C105.794 73.732 105.659 74.384 105.389 74.931C105.119 75.476 104.726 75.895 104.21 76.188C103.694 76.479 103.067 76.625 102.328 76.625ZM100.964 75.844H102.271C102.873 75.844 103.371 75.728 103.766 75.496C104.162 75.264 104.456 74.933 104.651 74.505C104.845 74.076 104.942 73.566 104.942 72.974C104.942 72.387 104.846 71.882 104.654 71.458C104.462 71.032 104.176 70.7053 103.795 70.478C103.414 70.2483 102.939 70.1335 102.371 70.1335H100.964V75.844Z" fill="white"/>
<path d="M68.8806 91.5V84.227H71.338C71.9085 84.227 72.3749 84.33 72.7371 84.536C73.1017 84.74 73.3716 85.016 73.5468 85.364C73.722 85.712 73.8096 86.1 73.8096 86.528C73.8096 86.957 73.722 87.346 73.5468 87.697C73.374 88.047 73.1064 88.326 72.7442 88.535C72.382 88.741 71.918 88.844 71.3522 88.844H69.5908V88.062H71.3238C71.7144 88.062 72.0281 87.995 72.2648 87.86C72.5016 87.725 72.6732 87.543 72.7797 87.313C72.8886 87.081 72.9431 86.82 72.9431 86.528C72.9431 86.237 72.8886 85.977 72.7797 85.747C72.6732 85.518 72.5004 85.338 72.2613 85.207C72.0222 85.075 71.7049 85.009 71.3096 85.009H69.7613V91.5H68.8806ZM75.2282 91.5V84.227H76.1089V90.719H79.4896V91.5H75.2282ZM85.626 84.227H86.5066V89.043C86.5066 89.54 86.3895 89.984 86.1551 90.374C85.9231 90.763 85.5952 91.069 85.1714 91.294C84.7477 91.517 84.2505 91.628 83.6799 91.628C83.1094 91.628 82.6122 91.517 82.1885 91.294C81.7647 91.069 81.4356 90.763 81.2012 90.374C80.9692 89.984 80.8532 89.54 80.8532 89.043V84.227H81.7339V88.972C81.7339 89.327 81.812 89.643 81.9683 89.92C82.1245 90.194 82.3471 90.411 82.6359 90.57C82.9271 90.726 83.2751 90.804 83.6799 90.804C84.0848 90.804 84.4328 90.726 84.724 90.57C85.0152 90.411 85.2377 90.194 85.3916 89.92C85.5478 89.643 85.626 89.327 85.626 88.972V84.227ZM92.2426 86.045C92.2 85.686 92.0272 85.406 91.7242 85.207C91.4211 85.009 91.0494 84.909 90.6091 84.909C90.2871 84.909 90.0054 84.961 89.7639 85.065C89.5248 85.17 89.3378 85.313 89.2028 85.495C89.0703 85.677 89.004 85.884 89.004 86.116C89.004 86.311 89.0501 86.478 89.1425 86.617C89.2372 86.754 89.3579 86.869 89.5047 86.962C89.6515 87.052 89.8054 87.126 89.9663 87.185C90.1273 87.242 90.2753 87.288 90.4102 87.324L91.1489 87.523C91.3383 87.572 91.549 87.641 91.781 87.729C92.0153 87.816 92.2391 87.936 92.4521 88.087C92.6676 88.237 92.8451 88.428 92.9848 88.663C93.1245 88.897 93.1943 89.185 93.1943 89.526C93.1943 89.919 93.0913 90.274 92.8854 90.591C92.6818 90.908 92.3835 91.16 91.9905 91.347C91.5999 91.534 91.1252 91.628 90.5665 91.628C90.0457 91.628 89.5947 91.544 89.2135 91.376C88.8347 91.208 88.5364 90.973 88.3186 90.673C88.1032 90.372 87.9813 90.023 87.9528 89.625H88.8619C88.8856 89.9 88.9779 90.127 89.1389 90.307C89.3023 90.484 89.5082 90.617 89.7568 90.705C90.0078 90.79 90.2777 90.832 90.5665 90.832C90.9027 90.832 91.2045 90.778 91.472 90.669C91.7395 90.558 91.9514 90.404 92.1077 90.207C92.2639 90.009 92.3421 89.777 92.3421 89.511C92.3421 89.27 92.2746 89.073 92.1396 88.922C92.0047 88.77 91.8271 88.647 91.607 88.553C91.3868 88.458 91.1489 88.375 90.8932 88.304L89.9983 88.048C89.4301 87.885 88.9803 87.652 88.6489 87.349C88.3174 87.046 88.1517 86.649 88.1517 86.159C88.1517 85.752 88.2618 85.397 88.482 85.094C88.7045 84.788 89.0028 84.552 89.3769 84.384C89.7533 84.213 90.1735 84.128 90.6375 84.128C91.1063 84.128 91.5229 84.212 91.8875 84.38C92.2521 84.546 92.5409 84.773 92.754 85.062C92.9694 85.351 93.0831 85.679 93.0949 86.045H92.2426Z" fill="white"/>
<path d="M67.8912 28.62H66.4509C66.3955 28.3123 66.2924 28.0414 66.1416 27.8075C65.9908 27.5736 65.8061 27.3751 65.5876 27.212C65.3691 27.0489 65.1244 26.9258 64.8536 26.8427C64.5858 26.7596 64.3012 26.718 63.9995 26.718C63.4548 26.718 62.967 26.855 62.5361 27.1289C62.1083 27.4028 61.7698 27.8045 61.5205 28.3338C61.2743 28.8632 61.1512 29.5095 61.1512 30.2727C61.1512 31.0421 61.2743 31.6915 61.5205 32.2209C61.7698 32.7502 62.1099 33.1503 62.5407 33.4212C62.9716 33.692 63.4563 33.8274 63.9949 33.8274C64.2935 33.8274 64.5766 33.7874 64.8444 33.7074C65.1152 33.6243 65.3599 33.5027 65.5784 33.3427C65.7969 33.1826 65.9816 32.9872 66.1324 32.7564C66.2862 32.5225 66.3924 32.2547 66.4509 31.9531L67.8912 31.9577C67.8143 32.4225 67.665 32.8503 67.4434 33.2411C67.2249 33.6289 66.9433 33.9644 66.5986 34.2475C66.257 34.5276 65.8661 34.7446 65.426 34.8984C64.9859 35.0523 64.5058 35.1293 63.9857 35.1293C63.167 35.1293 62.4376 34.9354 61.7975 34.5476C61.1573 34.1567 60.6526 33.5981 60.2833 32.8718C59.917 32.1455 59.7339 31.2791 59.7339 30.2727C59.7339 29.2633 59.9186 28.3969 60.2879 27.6737C60.6572 26.9473 61.162 26.3903 61.8021 26.0025C62.4423 25.6116 63.1701 25.4162 63.9857 25.4162C64.4874 25.4162 64.9552 25.4885 65.3891 25.6332C65.8261 25.7747 66.2185 25.984 66.5663 26.261C66.9141 26.5349 67.2018 26.8704 67.4296 27.2674C67.6573 27.6613 67.8112 28.1122 67.8912 28.62ZM68.8688 25.5455H70.4892L72.959 29.8434H73.0605L75.5304 25.5455H77.1507L73.7207 31.2884V35H72.2988V31.2884L68.8688 25.5455ZM78.4976 35V25.5455H81.9599C82.6309 25.5455 83.1864 25.6562 83.6265 25.8778C84.0666 26.0964 84.3959 26.3933 84.6144 26.7688C84.8329 27.1412 84.9422 27.5613 84.9422 28.0291C84.9422 28.4231 84.8699 28.7554 84.7252 29.0263C84.5806 29.294 84.3867 29.5095 84.1435 29.6726C83.9035 29.8326 83.6388 29.9496 83.3495 30.0234V30.1158C83.6634 30.1312 83.9697 30.2327 84.2682 30.4205C84.5698 30.6051 84.8191 30.8683 85.0161 31.2099C85.213 31.5515 85.3115 31.967 85.3115 32.4563C85.3115 32.9395 85.1976 33.3735 84.9699 33.7582C84.7452 34.1398 84.3975 34.4429 83.9266 34.6676C83.4557 34.8892 82.854 35 82.1215 35H78.4976ZM79.9241 33.7766H81.983C82.6663 33.7766 83.1556 33.6443 83.4511 33.3796C83.7465 33.1149 83.8943 32.7841 83.8943 32.3871C83.8943 32.0885 83.8189 31.8146 83.668 31.5653C83.5172 31.3161 83.3018 31.1175 83.0217 30.9698C82.7448 30.8221 82.4154 30.7482 82.0338 30.7482H79.9241V33.7766ZM79.9241 29.6357H81.8353C82.1554 29.6357 82.4431 29.5741 82.6986 29.451C82.9571 29.3279 83.1618 29.1555 83.3126 28.9339C83.4665 28.7093 83.5434 28.4446 83.5434 28.1399C83.5434 27.7491 83.4064 27.4213 83.1325 27.1566C82.8586 26.8919 82.4385 26.7596 81.8722 26.7596H79.9241V29.6357ZM87.0035 35V25.5455H92.931V26.7734H88.4299V29.6541H92.6217V30.8775H88.4299V33.772H92.9864V35H87.0035ZM94.8365 35V25.5455H98.2069C98.9389 25.5455 99.5469 25.6716 100.03 25.924C100.516 26.1764 100.88 26.5257 101.12 26.9719C101.36 27.4151 101.48 27.9276 101.48 28.5092C101.48 29.0878 101.358 29.5972 101.115 30.0373C100.875 30.4743 100.512 30.8144 100.025 31.0575C99.5419 31.3007 98.9339 31.4222 98.2019 31.4222H95.649V30.1942H98.0729C98.5339 30.1942 98.9099 30.1281 99.1989 29.9957C99.4919 29.8634 99.7049 29.671 99.8409 29.4187C99.9759 29.1663 100.044 28.8632 100.044 28.5092C100.044 28.1522 99.9749 27.8429 99.8359 27.5813C99.7009 27.3197 99.4869 27.1197 99.1949 26.9812C98.9049 26.8396 98.5249 26.7688 98.0539 26.7688H96.2629V35H94.8365ZM99.5039 30.7344L101.84 35H100.215L97.9249 30.7344H99.5039Z" fill="white"/>
<path d="M42.0388 53.0625V43.608H47.9664V44.8359H43.4653V47.7166H47.6571V48.94H43.4653V51.8345H48.0218V53.0625H42.0388ZM55.0284 46.0916C54.9792 45.6546 54.7761 45.3161 54.419 45.076C54.062 44.8329 53.6127 44.7113 53.071 44.7113C52.6832 44.7113 52.3478 44.7728 52.0646 44.896C51.7815 45.016 51.5614 45.1822 51.4045 45.3945C51.2506 45.6038 51.1737 45.8423 51.1737 46.1101C51.1737 46.3348 51.226 46.5286 51.3306 46.6918C51.4383 46.8549 51.5784 46.9918 51.7507 47.1026C51.9261 47.2103 52.1139 47.3011 52.3139 47.375C52.514 47.4458 52.7063 47.5043 52.891 47.5504L53.8143 47.7905C54.1159 47.8643 54.4252 47.9644 54.7422 48.0906C55.0592 48.2167 55.3531 48.3829 55.6239 48.5891C55.8948 48.7953 56.1133 49.0508 56.2795 49.3555C56.4488 49.6602 56.5334 50.0249 56.5334 50.4496C56.5334 50.9851 56.3949 51.4606 56.1179 51.8761C55.844 52.2915 55.4454 52.6193 54.9222 52.8594C54.4021 53.0994 53.7727 53.2195 53.0341 53.2195C52.3262 53.2195 51.7138 53.1071 51.1967 52.8825C50.6797 52.6578 50.275 52.3393 49.9826 51.9268C49.6902 51.5114 49.5287 51.0189 49.4979 50.4496H50.929C50.9567 50.7912 51.0675 51.0759 51.2614 51.3036C51.4583 51.5283 51.7092 51.696 52.0139 51.8068C52.3216 51.9145 52.6586 51.9684 53.0249 51.9684C53.428 51.9684 53.7866 51.9053 54.1005 51.7791C54.4175 51.6499 54.6668 51.4714 54.8484 51.2436C55.03 51.0128 55.1207 50.7435 55.1207 50.4357C55.1207 50.1557 55.0407 49.9264 54.8807 49.7479C54.7237 49.5694 54.5098 49.4216 54.239 49.3047C53.9712 49.1877 53.6681 49.0846 53.3296 48.9954L52.2124 48.6907C51.4553 48.4845 50.8551 48.1813 50.4119 47.7812C49.9718 47.3812 49.7518 46.8518 49.7518 46.1932C49.7518 45.6484 49.8995 45.1729 50.195 44.7667C50.4904 44.3604 50.8905 44.045 51.3953 43.8203C51.9 43.5926 52.4694 43.4787 53.1033 43.4787C53.7435 43.4787 54.3082 43.591 54.7976 43.8157C55.29 44.0404 55.6778 44.3497 55.9609 44.7436C56.2441 45.1345 56.3918 45.5838 56.4041 46.0916H55.0284ZM63.3946 46.0916C63.3454 45.6546 63.1423 45.3161 62.7853 45.076C62.4282 44.8329 61.9789 44.7113 61.4372 44.7113C61.0495 44.7113 60.714 44.7728 60.4309 44.896C60.1477 45.016 59.9277 45.1822 59.7707 45.3945C59.6168 45.6038 59.5399 45.8423 59.5399 46.1101C59.5399 46.3348 59.5922 46.5286 59.6968 46.6918C59.8046 46.8549 59.9446 46.9918 60.1169 47.1026C60.2924 47.2103 60.4801 47.3011 60.6801 47.375C60.8802 47.4458 61.0725 47.5043 61.2572 47.5504L62.1805 47.7905C62.4821 47.8643 62.7914 47.9644 63.1084 48.0906C63.4254 48.2167 63.7193 48.3829 63.9902 48.5891C64.261 48.7953 64.4795 49.0508 64.6457 49.3555C64.815 49.6602 64.8996 50.0249 64.8996 50.4496C64.8996 50.9851 64.7611 51.4606 64.4841 51.8761C64.2102 52.2915 63.8117 52.6193 63.2885 52.8594C62.7683 53.0994 62.1389 53.2195 61.4003 53.2195C60.6925 53.2195 60.08 53.1071 59.563 52.8825C59.0459 52.6578 58.6412 52.3393 58.3488 51.9268C58.0564 51.5114 57.8949 51.0189 57.8641 50.4496H59.2952C59.3229 50.7912 59.4337 51.0759 59.6276 51.3036C59.8246 51.5283 60.0754 51.696 60.3801 51.8068C60.6878 51.9145 61.0248 51.9684 61.3911 51.9684C61.7943 51.9684 62.1528 51.9053 62.4667 51.7791C62.7837 51.6499 63.033 51.4714 63.2146 51.2436C63.3962 51.0128 63.487 50.7435 63.487 50.4357C63.487 50.1557 63.4069 49.9264 63.2469 49.7479C63.0899 49.5694 62.876 49.4216 62.6052 49.3047C62.3375 49.1877 62.0343 49.0846 61.6958 48.9954L60.5786 48.6907C59.8215 48.4845 59.2213 48.1813 58.7782 47.7812C58.338 47.3812 58.118 46.8518 58.118 46.1932C58.118 45.6484 58.2657 45.1729 58.5612 44.7667C58.8566 44.3604 59.2567 44.045 59.7615 43.8203C60.2662 43.5926 60.8356 43.4787 61.4696 43.4787C62.1097 43.4787 62.6745 43.591 63.1638 43.8157C63.6562 44.0404 64.044 44.3497 64.3272 44.7436C64.6103 45.1345 64.758 45.5838 64.7703 46.0916H63.3946ZM66.6042 53.0625V43.608H72.5318V44.8359H68.0307V47.7166H72.2225V48.94H68.0307V51.8345H72.5872V53.0625H66.6042ZM82.0683 43.608V53.0625H80.7572L75.9514 46.1286H75.8637V53.0625H74.4372V43.608H75.7576L80.5679 50.5511H80.6556V43.608H82.0683ZM83.6829 44.8359V43.608H91V44.8359H88.0501V53.0625H86.6282V44.8359H83.6829ZM94.0434 43.608V53.0625H92.6169V43.608H94.0434ZM96.9191 53.0625H95.4053L98.8081 43.608H100.456L103.858 53.0625H102.344L99.6711 45.3253H99.5971L96.9191 53.0625ZM97.1731 49.3601H102.085V50.5604H97.1731V49.3601ZM105.223 53.0625V43.608H106.65V51.8345H110.934V53.0625H105.223ZM117.718 46.0916C117.669 45.6546 117.465 45.3161 117.108 45.076C116.751 44.8329 116.302 44.7113 115.76 44.7113C115.373 44.7113 115.037 44.7728 114.754 44.896C114.471 45.016 114.251 45.1822 114.094 45.3945C113.94 45.6038 113.863 45.8423 113.863 46.1101C113.863 46.3348 113.915 46.5286 114.02 46.6918C114.128 46.8549 114.268 46.9918 114.44 47.1026C114.616 47.2103 114.803 47.3011 115.003 47.375C115.203 47.4458 115.396 47.5043 115.58 47.5504L116.504 47.7905C116.805 47.8643 117.115 47.9644 117.432 48.0906C117.749 48.2167 118.042 48.3829 118.313 48.5891C118.584 48.7953 118.803 49.0508 118.969 49.3555C119.138 49.6602 119.223 50.0249 119.223 50.4496C119.223 50.9851 119.084 51.4606 118.807 51.8761C118.533 52.2915 118.135 52.6193 117.612 52.8594C117.091 53.0994 116.462 53.2195 115.723 53.2195C115.016 53.2195 114.403 53.1071 113.886 52.8825C113.369 52.6578 112.964 52.3393 112.672 51.9268C112.38 51.5114 112.218 51.0189 112.187 50.4496H113.618C113.646 50.7912 113.757 51.0759 113.951 51.3036C114.148 51.5283 114.399 51.696 114.703 51.8068C115.011 51.9145 115.348 51.9684 115.714 51.9684C116.117 51.9684 116.476 51.9053 116.79 51.7791C117.107 51.6499 117.356 51.4714 117.538 51.2436C117.719 51.0128 117.81 50.7435 117.81 50.4357C117.81 50.1557 117.73 49.9264 117.57 49.7479C117.413 49.5694 117.199 49.4216 116.928 49.3047C116.661 49.1877 116.357 49.0846 116.019 48.9954L114.902 48.6907C114.145 48.4845 113.544 48.1813 113.101 47.7812C112.661 47.3812 112.441 46.8518 112.441 46.1932C112.441 45.6484 112.589 45.1729 112.884 44.7667C113.18 44.3604 113.58 44.045 114.085 43.8203C114.589 43.5926 115.159 43.4787 115.793 43.4787C116.433 43.4787 116.998 43.591 117.487 43.8157C117.979 44.0404 118.367 44.3497 118.65 44.7436C118.933 45.1345 119.081 45.5838 119.093 46.0916H117.718Z" fill="white"/>
<defs>
<linearGradient id="paint0_linear_51_1082" x1="76.4844" y1="0.75" x2="76.4844" y2="10.8438" gradientUnits="userSpaceOnUse">
<stop offset="0.39" stop-color="#A535C5"/>
<stop offset="1" stop-color="#F2C2F9"/>
</linearGradient>
<linearGradient id="paint1_linear_51_1082" x1="83.3636" y1="5.2656" x2="83.3636" y2="15.3594" gradientUnits="userSpaceOnUse">
<stop offset="0.39" stop-color="#A535C5"/>
<stop offset="1" stop-color="#F2C2F9"/>
</linearGradient>
</defs>
</svg>
