<svg width="195" height="52" viewBox="0 0 195 52" fill="none" xmlns="http://www.w3.org/2000/svg">
<mask id="mask0_54_1318" style="mask-type:luminance" maskUnits="userSpaceOnUse" x="0" y="1" width="195" height="50">
<path d="M194.5 1H0.5V51H194.5V1Z" fill="white"/>
</mask>
<g mask="url(#mask0_54_1318)">
<mask id="mask1_54_1318" style="mask-type:luminance" maskUnits="userSpaceOnUse" x="1" y="1" width="193" height="50">
<path d="M193.5 1H1.5V51H193.5V1Z" fill="white"/>
</mask>
<g mask="url(#mask1_54_1318)">
<mask id="mask2_54_1318" style="mask-type:luminance" maskUnits="userSpaceOnUse" x="1" y="1" width="193" height="50">
<path d="M193.5 1H1.5V51H193.5V1Z" fill="white"/>
</mask>
<g mask="url(#mask2_54_1318)">
<path d="M10.0106 36.6422C10.0106 42.1269 1.5 42.1269 1.5 36.6422V5.57835C1.5 0.0936756 10.0106 0.0936747 10.0106 5.57835V36.6422Z" fill="white"/>
<path d="M23.8407 46.7437C23.8407 52.2284 15.3301 52.2284 15.3301 46.7437V15.6799C15.3301 10.1952 23.8407 10.1952 23.8407 15.6799V46.7437Z" fill="white"/>
<path d="M37.6708 36.6422C37.6708 42.1269 29.1602 42.1269 29.1602 36.6422V5.57835C29.1602 0.0936756 37.6708 0.0936747 37.6708 5.57835V36.6422Z" fill="white"/>
<path d="M51.5008 46.7437C51.5008 52.2284 42.9902 52.2284 42.9902 46.7437V16.6799C42.9902 11.1952 51.5008 11.1952 51.5008 16.6799V46.7437Z" fill="white"/>
<mask id="mask3_54_1318" style="mask-type:luminance" maskUnits="userSpaceOnUse" x="66" y="1" width="128" height="50">
<path d="M193.5 1H66.5V51H193.5V1Z" fill="white"/>
</mask>
<g mask="url(#mask3_54_1318)">
<path d="M81.7919 33.1439V37.4999H66.7109V14.3999H81.7919V18.7559H71.8259V23.8709H80.4719V28.0289H71.8259V33.1439H81.7919ZM90.5787 37.4999H85.5957V20.3069H89.7867L90.1827 22.6499C91.7997 20.9009 93.7137 20.0099 96.0567 20.0099C98.1687 20.0099 99.5877 20.6369 100.479 21.8249C100.743 22.1549 100.941 22.4849 101.106 22.8809C102.789 20.9339 104.703 20.0099 107.079 20.0099C109.257 20.0099 110.709 20.6369 111.6 21.8249C112.524 23.0459 112.788 24.4649 112.788 27.9629V37.4999H107.838V29.0849C107.838 27.1049 107.706 26.2469 107.178 25.5539C106.617 24.8939 105.858 24.6299 104.67 24.6299C103.581 24.6299 102.624 24.9599 101.634 25.7849C101.7 26.4119 101.7 27.1049 101.7 27.9629V37.4999H96.7167V29.0849C96.7167 27.1049 96.6177 26.2469 96.0567 25.5539C95.5287 24.8939 94.7697 24.6299 93.6477 24.6299C92.4267 24.6299 91.3047 25.0589 90.5787 25.8179V37.4999ZM124.998 37.7639C123.711 37.7639 122.325 37.5329 121.005 37.0379L117.21 37.4999V12.4199H122.193V22.5509C123.414 20.8679 125.064 19.9769 127.308 19.9769C131.136 19.9769 133.71 22.8479 133.71 28.2269C133.71 34.3649 130.212 37.7639 124.998 37.7639ZM122.193 26.6429V33.3089C122.952 33.6389 123.678 33.7709 124.437 33.7709C126.846 33.7709 128.529 32.1869 128.529 28.7219C128.529 25.8179 127.275 24.3989 125.46 24.3989C124.008 24.3989 122.952 25.1909 122.193 26.6429ZM141.851 37.4999H136.868V12.4199H141.851V37.4999ZM154.429 37.7639C148.159 37.7639 145.024 34.8599 145.024 28.8539C145.024 23.1119 148.918 19.9769 153.373 19.9769C158.092 19.9769 160.369 22.8149 160.369 27.7649C160.369 28.6889 160.303 29.5139 160.237 30.3389H150.106C150.601 32.9129 152.35 33.8039 155.551 33.8039C156.871 33.8039 158.224 33.6719 159.379 33.5069L159.148 37.4339C157.96 37.6319 156.343 37.7639 154.429 37.7639ZM153.241 23.6729C151.525 23.6729 150.271 24.8939 150.007 27.6329L155.65 27.3359C155.65 24.8279 154.891 23.6729 153.241 23.6729ZM168.696 37.4999H163.713V20.3069H167.904L168.3 22.6499C169.917 20.9009 171.831 20.0099 174.174 20.0099C176.286 20.0099 177.705 20.6369 178.596 21.8249C178.86 22.1549 179.058 22.4849 179.223 22.8809C180.906 20.9339 182.82 20.0099 185.196 20.0099C187.374 20.0099 188.826 20.6369 189.717 21.8249C190.641 23.0459 190.905 24.4649 190.905 27.9629V37.4999H185.955V29.0849C185.955 27.1049 185.823 26.2469 185.295 25.5539C184.734 24.8939 183.975 24.6299 182.787 24.6299C181.698 24.6299 180.741 24.9599 179.751 25.7849C179.817 26.4119 179.817 27.1049 179.817 27.9629V37.4999H174.834V29.0849C174.834 27.1049 174.735 26.2469 174.174 25.5539C173.646 24.8939 172.887 24.6299 171.765 24.6299C170.544 24.6299 169.422 25.0589 168.696 25.8179V37.4999Z" fill="white"/>
</g>
</g>
</g>
</g>
</svg>
