<svg width="12" height="20" viewBox="0 0 12 20" fill="none" xmlns="http://www.w3.org/2000/svg">
<path d="M5.8 19H6.2C6.94995 19 7.32492 19 7.58779 18.809C7.67268 18.7473 7.74734 18.6727 7.80902 18.5878C8 18.3249 8 17.9499 8 17.2V11.5H9.25C9.95223 11.5 10.3033 11.5 10.5556 11.3315C10.6648 11.2585 10.7585 11.1648 10.8315 11.0556C11 10.8033 11 10.4522 11 9.75C11 9.04777 11 8.69665 10.8315 8.44443C10.7585 8.33524 10.6648 8.24149 10.5556 8.16853C10.3033 8 9.95223 8 9.25 8H8V6C8 5.53406 8 5.30109 8.07612 5.11732C8.17761 4.87229 8.37229 4.67761 8.61732 4.57612C8.80109 4.5 9.03406 4.5 9.5 4.5C9.96594 4.5 10.1989 4.5 10.3827 4.42388C10.6277 4.32239 10.8224 4.12771 10.9239 3.88268C11 3.69891 11 3.46594 11 3V2.55556C11 2.03739 11 1.77831 10.9063 1.57738C10.8069 1.36431 10.6357 1.19305 10.4226 1.09369C10.2217 1 9.96261 1 9.44444 1C7.63086 1 6.72407 1 6.02084 1.32792C5.27507 1.67568 4.67568 2.27507 4.32792 3.02084C4 3.72407 4 4.63086 4 6.44445V8H2.75C2.04777 8 1.69665 8 1.44443 8.16853C1.33524 8.24149 1.24149 8.33524 1.16853 8.44443C1 8.69665 1 9.04777 1 9.75C1 10.4522 1 10.8033 1.16853 11.0556C1.24149 11.1648 1.33524 11.2585 1.44443 11.3315C1.69665 11.5 2.04777 11.5 2.75 11.5H4V17.2C4 17.9499 4 18.3249 4.19098 18.5878C4.25266 18.6727 4.32732 18.7473 4.41221 18.809C4.67508 19 5.05005 19 5.8 19Z" stroke="white" stroke-width="1.5" stroke-linejoin="round"/>
</svg>
