<svg width="185" height="52" viewBox="0 0 185 52" fill="none" xmlns="http://www.w3.org/2000/svg">
<mask id="mask0_54_1305" style="mask-type:luminance" maskUnits="userSpaceOnUse" x="0" y="1" width="185" height="50">
<path d="M184.5 1H0.5V51H184.5V1Z" fill="white"/>
</mask>
<g mask="url(#mask0_54_1305)">
<mask id="mask1_54_1305" style="mask-type:luminance" maskUnits="userSpaceOnUse" x="1" y="1" width="183" height="50">
<path d="M183.5 1H1.5V51H183.5V1Z" fill="white"/>
</mask>
<g mask="url(#mask1_54_1305)">
<path d="M30 50.8143C57.8618 46.8341 57.8624 5.22838 30.0001 1.24805C46.746 13.2673 46.7007 38.7898 30 50.8143Z" fill="white"/>
<path d="M18.9727 49.8219C20.7075 50.3795 22.4423 50.7513 24.301 50.8752C38.6998 37.6653 38.7092 14.3305 24.3011 1.12305C22.4423 1.30892 20.6455 1.68067 18.9727 2.17633C31.069 15.456 31.0651 36.5466 18.9727 49.8219Z" fill="white"/>
<path d="M12.5282 46.7238C24.272 35.6398 24.3835 16.392 12.5282 5.33594C-1.94125 14.9823 -1.94734 37.0734 12.5282 46.7238Z" fill="white"/>
<path d="M78.931 17.9854C74.436 17.9854 71.863 21.2404 71.863 26.1384C71.863 31.1914 74.777 33.9504 78.962 33.9504C82.899 33.9504 85.286 31.7804 85.286 28.1534V28.0604H78.435V24.5574H88.975V37.2984H85.627L85.379 34.6944C84.139 36.4304 81.566 37.6394 78.497 37.6394C72.142 37.6394 67.709 33.0204 67.709 26.0454C67.709 19.1634 72.204 14.2654 79.024 14.2654C84.201 14.2654 88.2 17.2724 88.851 21.8914H84.666C83.953 19.2254 81.659 17.9854 78.931 17.9854ZM102.312 21.9224V25.4254H100.917C98.189 25.4254 96.484 26.8824 96.484 29.8584V37.2984H92.702V22.0154H96.267L96.484 24.2474C97.135 22.7284 98.592 21.7054 100.638 21.7054C101.165 21.7054 101.692 21.7674 102.312 21.9224ZM108.823 37.7014C105.568 37.7014 103.584 35.8104 103.584 32.9274C103.584 30.1064 105.63 28.3394 109.257 28.0604L113.845 27.7194V27.3784C113.845 25.3014 112.605 24.4644 110.683 24.4644C108.451 24.4644 107.211 25.3944 107.211 27.0064H103.987C103.987 23.6894 106.715 21.5194 110.869 21.5194C114.992 21.5194 117.534 23.7514 117.534 27.9984V37.2984H114.217L113.938 35.0354C113.287 36.6164 111.21 37.7014 108.823 37.7014ZM110.063 34.8494C112.388 34.8494 113.876 33.4544 113.876 31.0984V30.2924L110.683 30.5404C108.327 30.7574 107.428 31.5324 107.428 32.7724C107.428 34.1674 108.358 34.8494 110.063 34.8494ZM121.25 44.3974V21.9844H124.753L125.001 24.3094C125.931 22.5424 127.946 21.5194 130.271 21.5194C134.58 21.5194 137.432 24.6504 137.432 29.4554C137.432 34.2294 134.828 37.7014 130.271 37.7014C127.977 37.7014 125.993 36.8024 125.032 35.2524V44.3974H121.25ZM125.063 29.6414C125.063 32.4004 126.768 34.2914 129.372 34.2914C132.038 34.2914 133.619 32.3694 133.619 29.6414C133.619 26.9134 132.038 24.9604 129.372 24.9604C126.768 24.9604 125.063 26.8824 125.063 29.6414ZM144.225 37.2984H140.443V14.2344H144.256V23.9684C145.217 22.4804 147.015 21.5194 149.216 21.5194C152.998 21.5194 154.982 23.9064 154.982 27.8744V37.2984H151.2V28.7734C151.2 26.2004 149.929 24.9604 148.007 24.9604C145.62 24.9604 144.225 26.6344 144.225 28.9284V37.2984ZM157.799 29.6104C157.799 24.8364 161.24 21.5504 165.983 21.5504C170.726 21.5504 174.167 24.8364 174.167 29.6104C174.167 34.3844 170.726 37.6704 165.983 37.6704C161.24 37.6704 157.799 34.3844 157.799 29.6104ZM161.581 29.6104C161.581 32.4004 163.379 34.2914 165.983 34.2914C168.587 34.2914 170.385 32.4004 170.385 29.6104C170.385 26.8204 168.587 24.9294 165.983 24.9294C163.379 24.9294 161.581 26.8204 161.581 29.6104Z" fill="white"/>
</g>
</g>
</svg>
