<svg width="20" height="20" viewBox="0 0 20 20" fill="none" xmlns="http://www.w3.org/2000/svg">
<path d="M9 8.5V14.5V11.9375C9 10.039 10.539 8.5 12.4375 8.5V8.5C13.5766 8.5 14.5 9.42341 14.5 10.5625V14.5M5.5 8.5V14.5" stroke="white" stroke-width="1.5" stroke-linecap="round" stroke-linejoin="round"/>
<circle cx="5.5" cy="5.5" r="1" fill="white"/>
<path d="M1 8.2C1 5.20021 1 3.70032 1.76393 2.64886C2.01065 2.30928 2.30928 2.01065 2.64886 1.76393C3.70032 1 5.20021 1 8.2 1H11.8C14.7998 1 16.2997 1 17.3511 1.76393C17.6907 2.01065 17.9893 2.30928 18.2361 2.64886C19 3.70032 19 5.20021 19 8.2V11.8C19 14.7998 19 16.2997 18.2361 17.3511C17.9893 17.6907 17.6907 17.9893 17.3511 18.2361C16.2997 19 14.7998 19 11.8 19H8.2C5.20021 19 3.70032 19 2.64886 18.2361C2.30928 17.9893 2.01065 17.6907 1.76393 17.3511C1 16.2997 1 14.7998 1 11.8V8.2Z" stroke="white" stroke-width="1.5" stroke-linejoin="round"/>
</svg>
