<svg width="36" height="36" viewBox="0 0 36 36" fill="none" xmlns="http://www.w3.org/2000/svg">
<path d="M26.75 11V11C26.75 6.16751 22.8325 2.25 18 2.25V2.25C13.1675 2.25 9.25 6.16751 9.25 11V11M18 24.125V24.125C19.933 24.125 21.5 22.558 21.5 20.625V20.625C21.5 18.692 19.933 17.125 18 17.125V17.125C16.067 17.125 14.5 18.692 14.5 20.625V20.625C14.5 22.558 16.067 24.125 18 24.125V24.125ZM18 24.125V28.5M13.625 33.75H22.375C26.4606 33.75 28.5034 33.75 30.0498 32.9234C31.2708 32.2708 32.2708 31.2708 32.9234 30.0498C33.75 28.5034 33.75 26.4606 33.75 22.375V22.375C33.75 18.2894 33.75 16.2466 32.9234 14.7002C32.2708 13.4792 31.2708 12.4792 30.0498 11.8266C28.5034 11 26.4606 11 22.375 11H13.625C9.53939 11 7.49659 11 5.95022 11.8266C4.72923 12.4792 3.72919 13.4792 3.07655 14.7002C2.25 16.2466 2.25 18.2894 2.25 22.375V22.375C2.25 26.4606 2.25 28.5034 3.07655 30.0498C3.72919 31.2708 4.72923 32.2708 5.95022 32.9234C7.49659 33.75 9.53939 33.75 13.625 33.75Z" stroke="white" stroke-width="2.625" stroke-linecap="round" stroke-linejoin="round"/>
</svg>
