<svg width="195" height="52" viewBox="0 0 195 52" fill="none" xmlns="http://www.w3.org/2000/svg">
<mask id="mask0_54_1340" style="mask-type:luminance" maskUnits="userSpaceOnUse" x="0" y="1" width="195" height="50">
<path d="M194.5 1H0.5V51H194.5V1Z" fill="white"/>
</mask>
<g mask="url(#mask0_54_1340)">
<mask id="mask1_54_1340" style="mask-type:luminance" maskUnits="userSpaceOnUse" x="1" y="1" width="193" height="50">
<path d="M193.5 1H1.5V51H193.5V1Z" fill="white"/>
</mask>
<g mask="url(#mask1_54_1340)">
<mask id="mask2_54_1340" style="mask-type:luminance" maskUnits="userSpaceOnUse" x="1" y="1" width="193" height="50">
<path d="M193.5 1H1.5V51H193.5V1Z" fill="white"/>
</mask>
<g mask="url(#mask2_54_1340)">
<path fill-rule="evenodd" clip-rule="evenodd" d="M1.68519 29.2598C1.5 29.2598 1.5 29.2598 1.5 29.2598C5.42481 57.1696 47.182 56.8951 51.5 29.2598C51.3148 29.2598 51.3148 29.2598 51.3148 29.2598C49.463 29.2598 47.7963 29.445 45.9444 29.8154C41.4178 49.9794 11.3441 50.1469 7.24074 29.6302C5.38889 29.445 3.53704 29.2598 1.68519 29.2598Z" fill="white"/>
<path fill-rule="evenodd" clip-rule="evenodd" d="M1.5 22.0399H1.68519C3.53704 22.0399 5.2037 21.8547 7.05556 21.4843C11.5437 1.49183 41.4069 1.06499 45.5741 21.4843C47.2407 21.8547 49.0926 22.0399 50.9444 22.0399H51.1296C47.6194 -6.04206 5.40498 -5.72889 1.5 22.0399Z" fill="white"/>
<path fill-rule="evenodd" clip-rule="evenodd" d="M47.0564 25.5565C38.9083 24.4454 31.5009 20.1862 26.5009 13.5195C21.5009 20.1862 14.0935 24.4454 5.94531 25.5565C14.0935 26.6677 21.6861 31.1121 26.5009 37.7788C31.5009 31.1121 38.9083 26.6677 47.0564 25.5565Z" fill="white"/>
<mask id="mask3_54_1340" style="mask-type:luminance" maskUnits="userSpaceOnUse" x="66" y="1" width="128" height="50">
<path d="M193.5 1H66.5V51H193.5V1Z" fill="white"/>
</mask>
<g mask="url(#mask3_54_1340)">
<path d="M71.7609 37.4986V16.5588H76.7109V37.4986H71.7609ZM66.9609 16.5588H81.5109V20.6087H66.9609V16.5588ZM66.9609 33.4487H81.5109V37.4986H66.9609V33.4487ZM94.0026 37.8587C92.2426 37.8587 90.7226 37.5088 89.4426 36.8088C88.1826 36.1088 87.2126 35.1088 86.5326 33.8088C85.8726 32.5088 85.5426 30.9588 85.5426 29.1588C85.5426 27.3188 85.8926 25.7487 86.5926 24.4487C87.3126 23.1487 88.3126 22.1588 89.5926 21.4788C90.8726 20.7988 92.3826 20.4587 94.1226 20.4587C95.6426 20.4587 96.9826 20.7287 98.1426 21.2687C99.3226 21.8087 100.253 22.5687 100.933 23.5487C101.633 24.5087 102.013 25.6588 102.073 26.9988H97.3926C97.2326 26.0788 96.8726 25.3987 96.3126 24.9587C95.7726 24.4987 95.0426 24.2687 94.1226 24.2687C93.3626 24.2687 92.6826 24.4588 92.0826 24.8388C91.5026 25.2188 91.0426 25.7688 90.7026 26.4888C90.3826 27.2088 90.2226 28.0988 90.2226 29.1588C90.2226 30.7388 90.5826 31.9588 91.3026 32.8188C92.0426 33.6788 92.9426 34.1087 94.0026 34.1087C94.6226 34.1087 95.1626 33.9988 95.6226 33.7788C96.1026 33.5588 96.5026 33.2488 96.8226 32.8488C97.1426 32.4288 97.3626 31.9587 97.4826 31.4387H102.163C102.043 32.7387 101.623 33.8688 100.903 34.8288C100.183 35.7888 99.2326 36.5388 98.0526 37.0788C96.8726 37.5988 95.5226 37.8587 94.0026 37.8587ZM113.274 37.8587C111.494 37.8587 109.964 37.5088 108.684 36.8088C107.404 36.1088 106.414 35.1088 105.714 33.8088C105.034 32.5088 104.694 30.9588 104.694 29.1588C104.694 27.3388 105.034 25.7888 105.714 24.5088C106.414 23.2088 107.404 22.2088 108.684 21.5088C109.964 20.8088 111.494 20.4587 113.274 20.4587C115.954 20.4587 118.044 21.2287 119.544 22.7687C121.064 24.3087 121.824 26.4388 121.824 29.1588C121.824 30.9588 121.484 32.5088 120.804 33.8088C120.124 35.1088 119.144 36.1088 117.864 36.8088C116.584 37.5088 115.054 37.8587 113.274 37.8587ZM113.274 34.0788C114.474 34.0788 115.414 33.6388 116.094 32.7588C116.794 31.8788 117.144 30.6788 117.144 29.1588C117.144 27.6188 116.794 26.4188 116.094 25.5588C115.414 24.6788 114.474 24.2388 113.274 24.2388C112.054 24.2388 111.094 24.6788 110.394 25.5588C109.714 26.4188 109.374 27.6188 109.374 29.1588C109.374 30.6788 109.714 31.8788 110.394 32.7588C111.094 33.6388 112.054 34.0788 113.274 34.0788ZM136.056 37.4986V27.2087C136.056 26.3487 135.836 25.6588 135.396 25.1388C134.956 24.6188 134.376 24.3587 133.656 24.3587C132.836 24.3587 132.076 24.6387 131.376 25.1987C130.696 25.7387 129.976 26.6787 129.216 28.0187L128.556 24.0588C129.316 22.7588 130.236 21.8387 131.316 21.2987C132.396 20.7387 133.496 20.4587 134.616 20.4587C135.896 20.4587 136.986 20.7287 137.886 21.2687C138.806 21.8087 139.506 22.5587 139.986 23.5187C140.486 24.4787 140.736 25.6088 140.736 26.9088V37.4986H136.056ZM124.926 37.4986V20.8188H129.456L129.606 23.7887V37.4986H124.926ZM149.958 37.4986V20.8188H154.638V37.4986H149.958ZM144.558 37.4986V33.7188H160.098V37.4986H144.558ZM146.658 24.5988V20.8188H152.298V24.5988H146.658ZM149.778 18.5988V14.2188H154.758V18.5988H149.778ZM172.05 37.8587C170.29 37.8587 168.77 37.5088 167.49 36.8088C166.23 36.1088 165.26 35.1088 164.58 33.8088C163.92 32.5088 163.59 30.9588 163.59 29.1588C163.59 27.3188 163.94 25.7487 164.64 24.4487C165.36 23.1487 166.36 22.1588 167.64 21.4788C168.92 20.7988 170.43 20.4587 172.17 20.4587C173.69 20.4587 175.03 20.7287 176.19 21.2687C177.37 21.8087 178.3 22.5687 178.98 23.5487C179.68 24.5087 180.06 25.6588 180.12 26.9988H175.44C175.28 26.0788 174.92 25.3987 174.36 24.9587C173.82 24.4987 173.09 24.2687 172.17 24.2687C171.41 24.2687 170.73 24.4588 170.13 24.8388C169.55 25.2188 169.09 25.7688 168.75 26.4888C168.43 27.2088 168.27 28.0988 168.27 29.1588C168.27 30.7388 168.63 31.9588 169.35 32.8188C170.09 33.6788 170.99 34.1087 172.05 34.1087C172.67 34.1087 173.21 33.9988 173.67 33.7788C174.15 33.5588 174.55 33.2488 174.87 32.8488C175.19 32.4288 175.41 31.9587 175.53 31.4387H180.21C180.09 32.7387 179.67 33.8688 178.95 34.8288C178.23 35.7888 177.28 36.5388 176.1 37.0788C174.92 37.5988 173.57 37.8587 172.05 37.8587Z" fill="white"/>
</g>
</g>
</g>
</g>
</svg>
