<svg width="20" height="20" viewBox="0 0 20 20" fill="none" xmlns="http://www.w3.org/2000/svg">
<path d="M16.5 4.5C16.5 5.05228 16.0523 5.5 15.5 5.5C14.9477 5.5 14.5 5.05228 14.5 4.5C14.5 3.94772 14.9477 3.5 15.5 3.5C16.0523 3.5 16.5 3.94772 16.5 4.5Z" fill="white"/>
<path d="M1 8.2C1 5.20021 1 3.70032 1.76393 2.64886C2.01065 2.30928 2.30928 2.01065 2.64886 1.76393C3.70032 1 5.20021 1 8.2 1H11.8C14.7998 1 16.2997 1 17.3511 1.76393C17.6907 2.01065 17.9893 2.30928 18.2361 2.64886C19 3.70032 19 5.20021 19 8.2V11.8C19 14.7998 19 16.2997 18.2361 17.3511C17.9893 17.6907 17.6907 17.9893 17.3511 18.2361C16.2997 19 14.7998 19 11.8 19H8.2C5.20021 19 3.70032 19 2.64886 18.2361C2.30928 17.9893 2.01065 17.6907 1.76393 17.3511C1 16.2997 1 14.7998 1 11.8V8.2Z" stroke="white" stroke-width="1.5" stroke-linejoin="round"/>
<path d="M14 10C14 12.2091 12.2091 14 10 14C7.79086 14 6 12.2091 6 10C6 7.79086 7.79086 6 10 6C12.2091 6 14 7.79086 14 10Z" stroke="white" stroke-width="1.5" stroke-linejoin="round"/>
</svg>
