<svg width="195" height="52" viewBox="0 0 195 52" fill="none" xmlns="http://www.w3.org/2000/svg">
<mask id="mask0_54_1361" style="mask-type:luminance" maskUnits="userSpaceOnUse" x="0" y="1" width="195" height="50">
<path d="M194.5 1H0.5V51H194.5V1Z" fill="white"/>
</mask>
<g mask="url(#mask0_54_1361)">
<mask id="mask1_54_1361" style="mask-type:luminance" maskUnits="userSpaceOnUse" x="1" y="1" width="193" height="50">
<path d="M193.5 1H1.5V51H193.5V1Z" fill="white"/>
</mask>
<g mask="url(#mask1_54_1361)">
<mask id="mask2_54_1361" style="mask-type:luminance" maskUnits="userSpaceOnUse" x="1" y="1" width="193" height="50">
<path d="M193.5 1H1.5V51H193.5V1Z" fill="white"/>
</mask>
<g mask="url(#mask2_54_1361)">
<path fill-rule="evenodd" clip-rule="evenodd" d="M38.1795 51L51.5 1L1.5 14.3205L12.6973 25.5177L40.8826 11.6179L26.7899 39.6102L38.1795 51Z" fill="white"/>
<path fill-rule="evenodd" clip-rule="evenodd" d="M40.8826 11.6191L26.7899 39.6114H12.6973V25.5187L40.8826 11.6191Z" fill="white"/>
<mask id="mask3_54_1361" style="mask-type:luminance" maskUnits="userSpaceOnUse" x="66" y="1" width="128" height="50">
<path d="M193.5 1H66.5V51H193.5V1Z" fill="white"/>
</mask>
<g mask="url(#mask3_54_1361)">
<path d="M77.8214 37.6842C76.2641 37.6842 74.8134 37.4069 73.4694 36.8522C72.1467 36.2762 70.9841 35.4869 69.9814 34.4842C68.9787 33.4816 68.1893 32.3082 67.6133 30.9642C67.0586 29.5989 66.7812 28.1269 66.7812 26.5482C66.7812 24.9909 67.0586 23.5509 67.6133 22.2282C68.1893 20.8842 68.9787 19.7109 69.9814 18.7082C70.9841 17.7056 72.1467 16.9269 73.4694 16.3722C74.8134 15.7962 76.2641 15.5082 77.8214 15.5082C79.3787 15.5082 80.8186 15.7962 82.1413 16.3722C83.464 16.9269 84.6267 17.7056 85.6294 18.7082C86.6321 19.7109 87.4107 20.8842 87.9654 22.2282C88.5201 23.5509 88.7974 24.9909 88.7974 26.5482C88.7974 28.1269 88.5201 29.5989 87.9654 30.9642C87.4107 32.3082 86.6321 33.4816 85.6294 34.4842C84.6267 35.4869 83.464 36.2762 82.1413 36.8522C80.8186 37.4069 79.3787 37.6842 77.8214 37.6842ZM77.8214 34.5802C78.8667 34.5802 79.8481 34.3776 80.7654 33.9722C81.7041 33.5456 82.5254 32.9696 83.2294 32.2442C83.9334 31.5189 84.4774 30.6762 84.8614 29.7162C85.2454 28.7349 85.4374 27.6789 85.4374 26.5482C85.4374 25.4389 85.2454 24.4042 84.8614 23.4442C84.4774 22.4842 83.9334 21.6416 83.2294 20.9162C82.5254 20.1909 81.7147 19.6256 80.7974 19.2202C79.8801 18.8149 78.8881 18.6122 77.8214 18.6122C76.7547 18.6122 75.7521 18.8149 74.8134 19.2202C73.8747 19.6256 73.0533 20.1909 72.3493 20.9162C71.6666 21.6416 71.1227 22.4842 70.7174 23.4442C70.3334 24.4042 70.1413 25.4389 70.1413 26.5482C70.1413 27.6789 70.3334 28.7349 70.7174 29.7162C71.1227 30.6762 71.6666 31.5189 72.3493 32.2442C73.0533 32.9696 73.8747 33.5456 74.8134 33.9722C75.7521 34.3776 76.7547 34.5802 77.8214 34.5802ZM95.5352 44.5002H92.3672V29.4282C92.3672 27.8709 92.7298 26.4736 93.4552 25.2362C94.2018 23.9989 95.2045 23.0282 96.4632 22.3242C97.7218 21.5989 99.1405 21.2362 100.719 21.2362C102.297 21.2362 103.716 21.6096 104.975 22.3562C106.233 23.0816 107.225 24.0736 107.951 25.3322C108.676 26.5696 109.039 27.9349 109.039 29.4282C109.039 31.0069 108.687 32.4256 107.983 33.6842C107.279 34.9216 106.308 35.9029 105.071 36.6282C103.855 37.3322 102.447 37.6842 100.847 37.6842C99.5885 37.6842 98.4258 37.3856 97.3592 36.7882C96.3138 36.1909 95.4712 35.4122 94.8312 34.4522C94.2125 33.4709 93.9032 32.4042 93.9032 31.2522L95.5352 32.0842V44.5002ZM100.719 34.7082C101.7 34.7082 102.575 34.4736 103.343 34.0042C104.132 33.5136 104.751 32.8736 105.199 32.0842C105.647 31.2736 105.871 30.3989 105.871 29.4602C105.871 28.5002 105.647 27.6256 105.199 26.8362C104.751 26.0469 104.132 25.4176 103.343 24.9482C102.575 24.4789 101.7 24.2442 100.719 24.2442C99.7378 24.2442 98.8525 24.4789 98.0632 24.9482C97.2952 25.4176 96.6765 26.0469 96.2072 26.8362C95.7592 27.6256 95.5352 28.5002 95.5352 29.4602C95.5352 30.3989 95.7592 31.2736 96.2072 32.0842C96.6765 32.8736 97.2952 33.5136 98.0632 34.0042C98.8525 34.4736 99.7378 34.7082 100.719 34.7082ZM119.753 37.7162C118.473 37.7162 117.385 37.4602 116.489 36.9482C115.593 36.4362 114.91 35.7322 114.441 34.8362C113.993 33.9189 113.769 32.8629 113.769 31.6682V17.5562H116.937V31.5722C116.937 32.5962 117.214 33.3962 117.769 33.9722C118.345 34.5482 119.102 34.8362 120.041 34.8362C120.553 34.8362 121.065 34.7509 121.577 34.5802C122.11 34.4096 122.569 34.1856 122.953 33.9082V36.8202C122.547 37.0762 122.057 37.2896 121.481 37.4602C120.905 37.6309 120.329 37.7162 119.753 37.7162ZM122.953 24.3722H110.665V21.6202H122.953V24.3722ZM127.663 21.6202H130.831V37.3002H127.663V21.6202ZM129.231 18.5162C128.868 18.5162 128.527 18.4309 128.207 18.2602C127.887 18.0682 127.631 17.8122 127.439 17.4922C127.247 17.1722 127.151 16.8202 127.151 16.4362C127.151 16.0522 127.247 15.7002 127.439 15.3802C127.631 15.0602 127.887 14.8042 128.207 14.6122C128.527 14.4202 128.868 14.3242 129.231 14.3242C129.615 14.3242 129.956 14.4202 130.255 14.6122C130.575 14.8042 130.82 15.0602 130.991 15.3802C131.183 15.7002 131.279 16.0522 131.279 16.4362C131.279 16.8202 131.183 17.1722 130.991 17.4922C130.82 17.8122 130.575 18.0682 130.255 18.2602C129.956 18.4309 129.615 18.5162 129.231 18.5162ZM155.448 21.1722C157.026 21.1722 158.349 21.5242 159.416 22.2282C160.504 22.9322 161.325 23.8816 161.88 25.0762C162.456 26.2709 162.744 27.5936 162.744 29.0442V37.3002H159.576V29.5562C159.576 28.5962 159.416 27.7109 159.096 26.9002C158.797 26.0896 158.317 25.4389 157.656 24.9482C157.016 24.4576 156.205 24.2122 155.224 24.2122C154.285 24.2122 153.496 24.4576 152.856 24.9482C152.216 25.4176 151.736 26.0576 151.416 26.8682C151.096 27.6576 150.936 28.5322 150.936 29.4922V37.3002H147.768V29.4922C147.768 28.5322 147.608 27.6576 147.288 26.8682C146.989 26.0576 146.509 25.4176 145.848 24.9482C145.208 24.4576 144.397 24.2122 143.416 24.2122C142.434 24.2122 141.624 24.4576 140.984 24.9482C140.365 25.4389 139.906 26.0896 139.608 26.9002C139.309 27.7109 139.16 28.5962 139.16 29.5562V37.3002H135.992V29.0762C135.992 27.6042 136.258 26.2709 136.792 25.0762C137.346 23.8816 138.157 22.9322 139.224 22.2282C140.312 21.5242 141.634 21.1722 143.192 21.1722C144.514 21.1722 145.656 21.4282 146.616 21.9402C147.597 22.4522 148.354 23.1562 148.888 24.0522C149.442 24.9482 149.73 25.9829 149.752 27.1562H149.048C149.09 25.9829 149.378 24.9482 149.912 24.0522C150.466 23.1562 151.213 22.4522 152.152 21.9402C153.112 21.4282 154.21 21.1722 155.448 21.1722ZM174.153 37.6842C172.638 37.6842 171.284 37.3109 170.089 36.5642C168.916 35.8176 167.988 34.8256 167.305 33.5882C166.622 32.3296 166.281 30.9429 166.281 29.4282C166.281 27.9349 166.644 26.5696 167.369 25.3322C168.116 24.0736 169.118 23.0816 170.377 22.3562C171.636 21.6096 173.054 21.2362 174.633 21.2362C176.212 21.2362 177.63 21.5989 178.889 22.3242C180.148 23.0282 181.14 23.9989 181.865 25.2362C182.612 26.4736 182.985 27.8709 182.985 29.4282V37.3002H179.977V31.4442L181.065 30.6122C181.065 31.9349 180.766 33.1296 180.169 34.1962C179.593 35.2629 178.782 36.1162 177.737 36.7562C176.713 37.3749 175.518 37.6842 174.153 37.6842ZM174.633 34.6762C175.614 34.6762 176.5 34.4416 177.289 33.9722C178.078 33.5029 178.697 32.8736 179.145 32.0842C179.593 31.2736 179.817 30.3989 179.817 29.4602C179.817 28.5002 179.593 27.6256 179.145 26.8362C178.697 26.0469 178.078 25.4176 177.289 24.9482C176.5 24.4576 175.614 24.2122 174.633 24.2122C173.652 24.2122 172.766 24.4576 171.977 24.9482C171.209 25.4176 170.59 26.0469 170.121 26.8362C169.673 27.6256 169.449 28.5002 169.449 29.4602C169.449 30.3989 169.673 31.2736 170.121 32.0842C170.59 32.8736 171.209 33.5029 171.977 33.9722C172.766 34.4416 173.652 34.6762 174.633 34.6762ZM188.163 14.4202H191.331V37.3002H188.163V14.4202Z" fill="white"/>
</g>
</g>
</g>
</g>
</svg>
