<svg width="36" height="36" viewBox="0 0 36 36" fill="none" xmlns="http://www.w3.org/2000/svg">
<path d="M18.875 9.25V6.625C18.875 4.20875 16.9162 2.25 14.5 2.25C12.0838 2.25 10.125 4.20875 10.125 6.625V9.25H8.55C5.92519 9.25 4.61278 9.25 3.69275 9.91844C3.39562 10.1343 3.13432 10.3956 2.91844 10.6928C2.25 11.6128 2.25 12.9252 2.25 15.55V17.125H4.875C7.29125 17.125 9.25 19.0838 9.25 21.5C9.25 23.9162 7.29125 25.875 4.875 25.875H2.25V27.45C2.25 30.0748 2.25 31.3872 2.91844 32.3072C3.13432 32.6044 3.39562 32.8657 3.69275 33.0816C4.61278 33.75 5.92519 33.75 8.55 33.75H10.125L10.125 31.125C10.125 28.7088 12.0838 26.75 14.5 26.75C16.9162 26.75 18.875 28.7088 18.875 31.125V33.75H20.45C23.0748 33.75 24.3872 33.75 25.3072 33.0816C25.6044 32.8657 25.8657 32.6044 26.0816 32.3072C26.75 31.3872 26.75 30.0748 26.75 27.45V25.875L29.375 25.875C31.7912 25.875 33.75 23.9162 33.75 21.5C33.75 19.0838 31.7912 17.125 29.375 17.125H26.75V15.55C26.75 12.9252 26.75 11.6128 26.0816 10.6928C25.8657 10.3956 25.6044 10.1343 25.3072 9.91844C24.3872 9.25 23.0748 9.25 20.45 9.25H18.875Z" stroke="white" stroke-width="2.625" stroke-linejoin="round"/>
</svg>
