<svg width="20" height="20" viewBox="0 0 20 20" fill="none" xmlns="http://www.w3.org/2000/svg">
<path d="M4.5 1H1L15.5 19H19L4.5 1Z" stroke="white" stroke-width="1.5" stroke-linecap="round" stroke-linejoin="round"/>
<path d="M0.616117 17.6161C0.127961 18.1043 0.127961 18.8957 0.616117 19.3839C1.10427 19.872 1.89573 19.872 2.38388 19.3839L0.616117 17.6161ZM19.3839 2.38388C19.872 1.89573 19.872 1.10427 19.3839 0.616117C18.8957 0.127961 18.1043 0.127961 17.6161 0.616117L19.3839 2.38388ZM2.38388 19.3839L9.88388 11.8839L8.11612 10.1161L0.616117 17.6161L2.38388 19.3839ZM11.8839 9.88388L19.3839 2.38388L17.6161 0.616117L10.1161 8.11612L11.8839 9.88388Z" fill="white"/>
</svg>
