<svg width="174" height="52" viewBox="0 0 174 52" fill="none" xmlns="http://www.w3.org/2000/svg">
<mask id="mask0_54_1381" style="mask-type:luminance" maskUnits="userSpaceOnUse" x="1" y="1" width="172" height="50">
<path d="M172.5 1H1.5V51H172.5V1Z" fill="white"/>
</mask>
<g mask="url(#mask0_54_1381)">
<mask id="mask1_54_1381" style="mask-type:luminance" maskUnits="userSpaceOnUse" x="1" y="1" width="172" height="50">
<path d="M172.5 1H1.5V51H172.5V1Z" fill="white"/>
</mask>
<g mask="url(#mask1_54_1381)">
<path d="M25.5 42.9314C23.1974 46.578 19.1315 49 14.5 49C7.3203 49 1.5 43.1797 1.5 36C1.5 28.8203 7.3203 23 14.5 23C19.2611 23 23.252 25.6222 25.5 29.3066C22.9353 33.5327 22.7482 38.8809 25.5 42.9314Z" fill="white"/>
<path d="M38.4841 23C42.7968 23.0203 47.0054 25.1849 49.4597 29.1126C53.2644 35.2014 51.4128 43.2216 45.3241 47.0262C39.2353 50.8309 31.2152 48.9793 27.4105 42.8905C24.8875 38.8529 24.9964 34.0789 26.9297 30.22C31.8727 30.1555 36.5073 27.4801 38.4841 23Z" fill="white"/>
<path d="M14.8879 20.8396C12.9299 16.9969 12.9255 12.2644 15.2921 8.2831C18.9608 2.11148 26.938 0.0824527 33.1096 3.75115C39.2812 7.41984 41.3102 15.397 37.6415 21.5686C35.2087 25.6612 30.9154 27.7519 26.5997 27.8016C24.2774 23.4375 19.7758 20.5439 14.8879 20.8396Z" fill="white"/>
<mask id="mask2_54_1381" style="mask-type:luminance" maskUnits="userSpaceOnUse" x="66" y="1" width="107" height="50">
<path d="M172.5 1H66.5V51H172.5V1Z" fill="white"/>
</mask>
<g mask="url(#mask2_54_1381)">
<path d="M80.2841 17.7994V14.4004H90.2501V17.7994L88.0391 18.0304L80.8781 37.5004H75.2681L67.9751 18.0304L65.8301 17.7994V14.4004H76.0931V17.7994L73.6181 18.0634L78.2381 32.1214L82.8251 18.0964L80.2841 17.7994ZM104.468 36.5104C102.983 37.2364 100.442 37.8964 98.0662 37.8964C92.6542 37.8964 89.1232 34.3654 89.1232 28.9204C89.1232 23.2114 92.8522 19.9114 97.7692 19.9114C103.808 19.9114 105.755 24.7294 104.765 29.6464C102.851 30.2404 97.6042 30.3064 94.4692 30.1744C94.9312 33.0454 96.8122 33.9034 99.0232 33.9034C100.574 33.9034 102.455 33.5404 103.808 33.1114L104.468 36.5104ZM97.6702 23.5414C96.3172 23.5414 94.7992 24.3994 94.4032 27.1384L100.046 27.0724C100.31 25.2904 99.6502 23.5414 97.6702 23.5414ZM121.975 37.0384C120.457 37.5334 118.378 37.8964 116.596 37.8964C110.821 37.8964 107.686 34.3324 107.686 29.0524C107.686 23.6404 110.92 19.9114 116.596 19.9114C118.246 19.9114 120.028 20.1754 121.744 20.8684L121.546 26.8744H118.312L118.114 23.8714C117.817 23.8054 117.487 23.7724 117.256 23.7724C114.451 23.7724 113.296 25.7524 113.296 28.8544C113.296 31.9564 114.616 34.0024 117.817 34.0024C118.873 34.0024 120.127 33.7714 121.414 33.4414L121.975 37.0384ZM136.58 37.0714C135.524 37.4014 134.006 37.8964 132.224 37.8964C128.825 37.8964 126.449 36.2464 126.449 31.0984V24.0694H124.106V20.7364L126.581 20.6374L127.175 16.2154L131.795 15.2914V20.4394L136.316 20.2744V24.0694H131.795V30.8014C131.795 32.6164 132.257 33.6064 134.27 33.6064C134.798 33.6064 135.491 33.5404 136.184 33.4414L136.58 37.0714ZM150.099 34.1674V37.5004H138.648V34.1674L141.189 33.9034V24.6304H138.648V21.2974L146.271 19.9114V22.7494C147.822 20.8354 150.132 19.8784 152.277 19.9114L152.112 24.7624C149.835 24.7624 147.987 25.0264 146.502 25.5544V33.8704L150.099 34.1674ZM171.316 34.1674V37.5004H164.584L164.188 36.1804C162.604 37.2364 160.954 37.8964 159.073 37.8964C156.037 37.8964 153.892 36.0814 153.892 33.1774C153.892 29.8444 156.598 28.1614 161.911 27.9634L163.561 27.8974C163.528 27.5014 163.528 27.1384 163.462 26.8084C163.231 24.9934 162.439 24.1024 160.459 24.1024C160.36 24.1024 160.261 24.1354 160.129 24.1354C159.667 24.1684 159.172 24.2344 158.578 24.3334L158.38 26.4124H155.377L155.113 21.1654C157.753 20.3404 159.7 19.9114 162.01 19.9114C166.762 19.9114 168.544 21.7594 168.742 26.2474C168.742 26.5774 168.775 26.9074 168.775 27.3034V33.9034L171.316 34.1674ZM161.086 34.5304C161.911 34.5304 162.835 34.2664 163.561 33.9364V30.7684H161.713C159.667 30.8344 158.875 31.5604 158.875 32.7484C158.875 33.9034 159.667 34.5304 161.086 34.5304Z" fill="white"/>
</g>
</g>
</g>
</svg>
